<svg viewBox="0 0 157 100" style="background-color:#ffffff00" xmlns="http://www.w3.org/2000/svg" width="157" height="100"><g><path d="M0 48.478v-.133h.214v.133h-.214zm1.215 12.814c.096-.134.168-.177.214-.134l-.107.067-.107.067zm0 5.006v-.201h.143v.201h-.143zm9.364 18.953c.048-.088.119-.266.214-.534l.465-.1.321-.033c-.238.267-.572.49-1 .667zm1.787-3.937c.095-.489.596-1.001 1.501-1.535v.334c-.667.623-1.167 1.024-1.501 1.201zm1.143-9.075c-.047-.223-.071-.411-.071-.569v-.367c.191-.044.619-.066 1.286-.066 0 .446-.404.779-1.215 1.001zm1.787 13.48c-.095-.4-.333-.734-.715-1.001.525-2.357 1.93-3.447 4.217-3.27.048 1.112 0 1.825-.143 2.136-.19.356-.833.713-1.93 1.067l-.143.534c-.19.091-.393.179-.607.268l-.679.266zm2.502-5.539c-.333-.622-.501-1.046-.501-1.269 0-.31.406-.601 1.215-.866.383.356.597.934.644 1.734-.189.18-.644.312-1.358.401zm9.579 2.422c-.048-.177-.072-.378-.072-.601h-.858c0-.134.072-.246.215-.514l-.215-.486h-.643c0-.177.118-.2.358-1h-.788c-.095.223-.311.467-.643.734.095-.578.5-1.757 1.215-2.425-.19-.177-.382-.266-.572-.266-.19 0-.405.111-.643.333-.334-.133-.715-.277-1.143-.433-.429-.155-.906-.367-1.43-.544-.095.267-.143.467-.143.601h-.643c-.429-.623-.858-.935-1.287-.935-.429 0-.81.31-1.143.844-.143.046-.547-.067-1.215-.333-.095-.269.048-.735.429-1.401.239 0 .536.11.894.333.357.222.584.333.679.333 0-.445-.166-.889-.501-1.335h-.465c-.166 0-.368.024-.607.067v-.267c.096-.045.239-.089.429-.134l.643-.134c.048-.177.119-.511.214-1.001.096-.489.239-1.135.429-1.935l.286-.1c.096-.022.215-.077.358-.167-.476-.401-.667-.711-.572-.934.143.133.453.245.929.334 0-.712.12-1.335.358-1.869-.095-.089-.274-.189-.536-.299-.261-.112-.096-.257-.478-.435-.572-.222-.977-.577-1.216-1.068v-2.068c.286.09 1.144.133 2.574.133.905-.578.871-1.201.871-1.868 0-1.29-1.048-1.89-3.146-1.802l-.072.2-.072.134c.334.222.525.533.572.933-.238-.088-.44-.144-.607-.167-.167-.021-.297-.056-.393-.1.334-1.513.571-2.402.714-2.67.429.846 1.055 1.268 1.769 1.268 1.095 0 2.025-.623 2.788-1.869v-2.402c.858-.623 1.477-1.401 1.858-2.336-.668-.934-1.317-1.779-1.269-2.536.19-.088.357-.176.5-.267.142-.088.309-.177.5-.266.237.133.452.156.644.066.047-.443.332-.8.857-1.067-.238-.49-.382-.935-.429-1.335.095-.044.237-.089.429-.134.19-.044.404-.111.644-.201-.048-.133-.072-.333-.072-.6 0-.444.38-.823 1.144-1.135.761-.311 1.191-.622 1.286-.934.906-.489 1.408-.711 1.693-.667l.214.4v-.868c1.954-.934 3.359-1.378 4.217-1.335l.381.401c.047-.044.262-.066.644-.066l-.107.267-.108.267c0 .089.083.167.25.234l.465.167v-.367c0-.155.023-.322.072-.501h.464c.215 0 .44.023.679.067.189-.177.66-.222 1.042-.133l1.001.267v-1.001l.429-.133c.095.223.197.334.387.334-.048-.133-.244-.511-.244-1.134l.428-.133v-.734c1.525-.177 2.622-.311 3.289-.401l1.031-.133c.095.09.189.2.286.334l.572-.134c-.097.134-.167.333-.215.6.572-.044 1.048-.377 1.43-1.001.237-.044 1.167-.077 2.787-.1 1.62-.022 4.003-.034 7.148-.034 4.813.534 8.649 1.224 11.509 2.069 3.906 1.113 7.337 2.826 10.293 5.14-.143.044-.262.166-.357.255 0 .267.119.445.357.534h.786c.237.667.404 1.542.501 1.72 1.333.178 2.216.902 2.645 2.28h.5c2.858 3.962 4.288 9.367 4.288 16.219-.335 1.868-.524 2.284-.572 2.151h-.428c0 .223.023.399.071.533.047-.043.119-.066.215-.066.095 1.158-.215 1.979-.928 2.469 0 .578-.144 1.134-.431 1.669h-.357c-.382-.845-.548-1.379-.501-1.602.239-.089.359-.199.359-.333-.431.089-.787.512-1.073 1.269-.382 0-.763-.112-1.143-.335-.049.178-.072.346-.072.501v.433c-.24-.043-.477-.067-.715-.067-.143-.444-.501-.867-1.073-1.268-.382.091-.81.223-1.286.401-.143.58-.453.867-.929.867 0-.533.225-.935.679-1.201.452-.267.726-.511.822-.735h.429l.143.401.643-.132c.238-.045.547-.111.93-.201-.668-.089-1.3-.156-1.895-.201-.596-.044-1.132-.066-1.608-.066-.811 0-1.501.066-2.073.199-.286.268-.548.424-.786.467-.096-.31-.31-.622-.643-.935-.382.269-.644.467-.787.601l.216.333.142.267c-.382.223-.953.378-1.716.467.19.133.501.446.929.934-.525-.043-.894-.078-1.108-.101l-.179-.033c-.286 0-.668.18-1.143.535-.287-.044-.764-.111-1.43-.201.237-.089.465-.144.679-.168.214-.022.368-.054.464-.099.143-.443.047-.878-.285-1.302-.334-.422-.763-.633-1.288-.633-.382 0-.69.178-.929.533l-.357-.399c.285 0 .5-.134.643-.402-.286-.488-.524-.734-.715-.734-.239 0-.382.334-.428 1.002-.287-.088-.477-.134-.572-.134 0 .134.011.233.035.3.023.067 0 .134-.072.201-.07.067-.226.144-.463.233-.24.089-.597.2-1.072.333l.285-.601c.143-.043.31-.067.5-.067l-.143-.467c-.524.267-.977.4-1.358.4-.049.09-.119.178-.214.267.19.178.44.367.75.567.309.2.679.126 1.108.393-.763.09-1.406-.066-1.929-.466h-1.931c.048-.045.118-.201.215-.468l-.286.307c-.24.267-.715.624-1.43 1.068v-.333c0-.135.023-.312.072-.535 1.716-2.269 2.573-4.981 2.573-8.142 0-4.715-1.597-8.497-4.79-11.345-.285-.178-.643-.368-1.072-.569-.429-.199-.929-.456-1.501-.767-.048-.133-.072-.288-.072-.468l-.143.468c-.763-.089-1.465-.167-2.108-.234-.644-.067-1.276-.099-1.895-.099-4.956 0-8.53 2.158-10.722 6.473-.191.623-.602 1.214-.744 1.769-.143.556-.263 1.079-.358 1.568v5.473c-.428.178-.667.312-.714.4.619.046 1.388 1.001 1.817 2.87.905 1.559 1.358 2.469 1.358 2.737l-.214-.508v.335h-1.072l.142.533c.095 0 .226.307.394.307.166 0 .368.023.606.067-.095.091-.167.223-.213.4.237 0 .475.023.714.067v.467h-1.036c-.31 0-.561.023-.75.066-.049.18-.24.312-.572.4.142-.176.255-.511.399-1.001-.382.268-1.001.558-1.859.868v-1.534c-.239-.088-.607-.201-1.107-.333-.501-.134-.936-.244-1.65-.335l.186.267c.237 0 .428.022.572.067v.533c-.239 0-.429.023-.572.067-.097-.534-.436-.843-.651-.934-.214-.089-.632-.133-1.251-.133-.477.445-.714.845-.714 1.201.143.135.261.316.358.359 0-.177.024-.309.071-.4h.644c.094.312.189.513.286.601-.192.178-.358.263-.501.44-.143.178-.263.357-.358.535.238.534.691.823 1.358.867 0-.756.332-1.246 1.001-1.469 0-.312.452-.668 1.358-1.068 0 .18.166.334.5.467v.467c-.335 0-.5.157-.5.466-.239-.043-.441-.066-.608-.066h-.394c-.048.223-.071.401-.071.533v.335c.476-.044.809-.134 1-.268.142.223.214.357.214.401-.143.09-.262.178-.357.267-.239.133-.357.333-.357.601.429.223.69.357.786.4l-.144.266c.287.046.548.067.787.067.237 0 .452.023.643.067-.048.178.017.557-.46 1.135.19.266.501.445.929.534v.666c-.763-.133-1.455-.467-2.073-1.001-.048.223-.399.446-.399.669-.905 0-1.477.022-1.714.067-.192-.177-.608-.256-1.252-.234-.642.023-1.061-.056-1.251-.233 1.477-.357 2.334-.645 2.573-.868l.214.6c.19-.043.394-.066.608-.066.215 0 .465-.023.751-.067.047-.489.214-.868.5-1.134-.524-.177-1.004-.511-1.241-1.001-.715 0-1.288.09-1.716.267v.533c-.382 0-.763.18-1.144.535-.382-.133-.593-.201-.831-.201-.333 0-.691.112-1.072.335-.143-.535-.929-.868-2.359-1.001-.048-.043-.072-.2-.072-.246l-.071-.199h-1.788c-.143.357-.025.645.357.868-.239-.043-.668.044-1.286.044v-.311c0-.177.023-.377.072-.601h-.858c-.239-.177-.691-.288-1.358-.333.19.934.787 1.244 1.787 1.379.047.177.082.411.107.7.023.29.082.633.178 1.034-.191-.221-.454-.467-.786-.733-.334-.268-.74-.579-1.215-.935 0 .712.357 1.134 1.072 1.268.047.223.072.424.072.601s.023.333.071.467l-.5.153zm-7.792-16.304h.143v-.201h-.143v.201zm.5-8.076c.334-1.067.597-1.69.786-1.869.429.357.644.669.644.935-.238.178-.476.333-.715.467-.238.133-.476.29-.715.467zm1.644 23.36v-.268h.357v.268h-.357zm.5-10.745c.095-.045.215-.067.358-.067.142 0 .309-.022.501-.067v-.334c-.24 0-.526.156-.859.467zm.715 8.876c-.238-.356-.477-.777-.715-1.268.524.044.762.466.715 1.268zm-.089-27.163l.143-.266v.533l-.357.133.213-.401zm.232 15.752c.571-.134 1.001-.445 1.286-.935-.525.133-.81.223-.857.267-.192.045-.334.267-.428.668zm.857 7.607h.286v-.133h-.286v.133zm1.429 6.093c-.238-.311-.44-.567-.607-.767l-.465-.354c-.143-.199-.213-.367-.213-.5.237 0 .403.245.5.734.475.044.833.157 1.072.334-.097.09-.169.223-.215.4l.572-.18v.333h-.644zm-1.143-11h1-1zm.5-1.299h.286v-.334h-.286v.334zm.143 14.282v-.134h.358v.134h-.358zm.358-22.359h.286v-.467h-.286v.467zm.267-13.624c-.144-.889-.048-1.69 0-2.402.047 0 .214-.412.5-.324v2.726h-.501zm1.02 35.382v-.333h.143v.333h-.143zm2.144.801l-.394-.334-.607-.467 1.357.333v.467h-.357zm-.5-31.7c.19-.044.429-.067.716-.067-.049-.044-.241-.111-.572-.2l-.144.267zm.214-11.079l-.071-.1-.072-.1c.095-.089.19-.133.285-.133l-.07.133-.072.2zm.286 41.646c-.048-.134-.071-.424-.071-.868.238 0 .547.156.93.467-.286.09-.572.223-.858.401zm.336-29.049h.502l.02-1h-.522v1zm.164 40.928v-.334h.358v.334h-.358zm.644-13.948c-.286 0-.454-.022-.5-.067 0-.267.023-.444.072-.534.523 0 .857.023 1.001.067v.466c-.192.179-.382.312-.572.401v-.334zm-.428-28.03h.143v-.2h-.143v.2zm.621-.949h.5l-.192-1h-.308v1zm0 3h.644l-.192-1h-.451v1zm.022 28.715c0-.177.023-.309.071-.4.43 0 .715.023.859.067-.382.09-.692.201-.93.333zm.786-34.437h.143v-.467h-.143v.467zm.143 1.602h.357v-.133h-.357v.133zm1.001.119c-.048-.133-.072-.91-.072-1h-.572c-.096.09-.167.867-.214 1h.858zm.69 3.084h.358v-.535c-.191 0-.442-.01-.75-.033-.31-.022-.727-.056-1.156-.101.094.179.166.291.214.334l1.334.335zm-1.642-4.084h.642l.452-1h-1.095v1zm0 32.114v-.533h1v.533h-1zm.952-34.57h.143v-.267h-.143v.267zm0 36.639l.143-.467c.095.18.166.334.214.467h-.357zm.048-27.183h1.001l.095-1h-1.096v1zm.953 22c0-.268.191-.511.572-.735-.049-.044-.072-.178-.072-.401-.668.491-1.001.868-1.001 1.136h.5zm0-28.252c.191-.044.022-.311.404-.802h-.357v-1.734c-.285.09-.524.178-.714.267.047.223.404.533.452.934.047.4.118.845.215 1.335zm-.143 34.036c-.048-.311-.072-.578-.072-.801v-.534c.144-.043.453-.156.93-.334.095.89-.191 1.447-.858 1.669zm0-33.236h.286v-.2h-.286v.2zm.143 20.889h.357v-.199h-.357v.199zm.143 1.269c.095-.089.19-.134.285-.134v-.401l-.428-.134c.046.09.072.179.072.267 0 .089.023.224.071.401zm0 2.803c.095-.088.19-.156.285-.201h-.428l.072.101.071.1zm0 5.406l.358.134.572.199c0 .09.047.267.142.534-.096 0-.286.045-.571.134l-.501-1.001zm1.215-5.446v-.468h-.714c.094.224.166.534.213.934l.5-.466zm-.214-27.523c.047-.177-.072-.467-.358-.867-.096.223.023.511.358.867zm-.143.667c.238-.088.405-.244.501-.467l-.644.2c0 .089.047.178.143.267zm-.143 27.696h.287v-.333h-.287v.333zm.5 5.692c-.095-.089-.167-.2-.214-.334l-.143-1.219.715 1.219.143.334h-.5zm-.214-25.979h.214v-.134h-.214v.134zm.357 32.167v-.266h.357v.266h-.357zm.143-16.285c.046-.043.118-.066.213-.066s.19-.023.287-.067c.047-.043.119-.155.214-.334-.382 0-.644.023-.786.067 0 .223.023.356.072.4zm0-15.349h.213v-.2h-.213v.2zm.357 40.511v-.333h.358v.333h-.358zm.143-33.102h.214v-.334h-.214v.334zm.643-17.686h.358c-.097-.267-.143-.422-.143-.467-.382 0-.596.023-.643.067l.429.401zm0-3.537l.036-.401c.024-.177.059-.377.107-.6h.358c.095.623-.071.957-.5 1.001zm.616 28.23c.046-.043.261-.133.644-.266v-1.135c.046 0 .261.045.643.134.047.088-.14.464-.044.664l.286.633h.501v-.267c.237.045.44-.153.608-.13l.393.033c.808 0 1.357-.577 1.643-1.736-.239-.044-.691-.067-1.358-.067-.238.446-.382.691-.428.735-.286.267-.549.423-.787.467.047-.221.024-.622-.071-1.201l-.143-.6c-.097.088-.382.2-.858.333-.096-.088-.191-.2-.286-.333-.096-.134-.191-.29-.286-.467-.096.089-.179.199-.25.333-.071.134.105.29.01.467-.19-.266-.382-.422-.572-.467v1.9h.5c-.047.133-.331.301-.331.499 0 .201.233.159.187.47zm-.616 6.674c.095-.043.286-.11.572-.2-.334 0-.524.067-.572.2zm.43-33.302l-.144-.133c-.048.089-.072.178-.072.267l.215-.133zm-.072 40.043c-.049-.043-.072-.222-.072-.534.095-.089.214-.156.357-.201-.047.179-.071.401-.071.668-.096 0-.168.023-.214.067zm.644-39.576h.285v-.133h-.285v.133zm.143 1.269h.143v-.267h-.143v.267zm.358 36.305c-.097-.177-.169-.333-.215-.467.19 0 .334.023.428.067 0 .223-.071.357-.213.4zm.285-6.874v-.267h.358v.267h-.358zm.216-3.804c.046-.045.166-.111.357-.201v-.467l-.429.134c0 .222.023.4.072.534zm.714-25.228c-.048-.133-.071-.356-.071-.667l-.286.134-.357.2c.142.133.19.333.142.6l.572-.267zm-.714 21.156h.142v-.333h-.142v.333zm.501.134h.143v-.467h-.143v.467zm.285 11.612c-.048-.088-.071-.177-.071-.267.047-.043.237-.111.571-.2-.095.267-.262.424-.5.467zm0-34.704h.215v-.2h-.215v.2zm.715 50.388c-.286-.4-.429-.734-.429-1.001 0-.443.285-.667.857-.667.811 0 1.216.357 1.216 1.067-.382.223-.93.424-1.644.601zm0-8.41c-.097-.355-.144-.556-.144-.6.429 0 .715.022.858.066-.096.046-.191.112-.286.201-.096.09-.238.201-.428.333zm.285-42.311c.048 0 .167-.044.359-.133v-.467l-.143.067-.215.067v.467zm.472 26.659v-1h.53v1h-.53zm.243-26.192c0-.044.047-.155.143-.333-.097 0-.192.045-.287.134 0 .045.048.111.144.2zm.757 7.192h1.114c-.144.133-.923-.606-1.114-.251v.251zm-.613 26.111c.238-.357.619-.556 1.143-.601v.467l-.464.033c-.215.024-.441.057-.679.101zm1.786-18.554c-.619-1.379-1.048-2.068-1.285-2.068.095.222.202.499.322.833.118.334.273.745.464 1.235h.5zm0 12.147l-.143-.268-.143-.266c-.143 0-.453.044-.928.133 0 .045.107.112.321.201.215.09.345.156.393.201h.5zm-1.143 10.812v-.135h.142v.135h-.142zm0 4.136c.048-.443.944-.911 1.327-1.401.095.135.31.178.644.135v-.736c.19.046.334.357.429.935-.477.533-1.732.89-2.399 1.067zm.501-2.268l-.071-.134-.071-.2h.357c0 .133.023.245.072.333h-.286zm.47-13.384h.787c-.097-.267-.567-1.121-.757-1.165l.327-.267h-.357v1.432zm-.184-23.789c-.048-.222-.072-.39-.072-.501v-.234l.107-.133.178-.2c0 .4.024.667.072.801.19-.178.381-.311.572-.401 0 .224.023.357.071.401-.095.044-.214.077-.357.099-.144.023-.334.078-.572.167zm.214 30.232v-.467c.048-.043.262-.111.644-.201.046.268-.024.557-.214.867l-.43-.2zm1.397 13.815c-.335-.223-.524-1.112-.572-2.671.286 0 1 .18 2.145.534v1.335c-.191.178-.715.445-1.573.801zm-1.255-9.478l.037-.301.107-.432c.095.044.215.077.358.099.143.024.333.078.571.167l-.143.267-.93.2zm.287-38.574h.214v-.267h-.214v.267zm0 21.423l.285.134c-.095.046-.19.111-.285.2v-.333zm.214 18.354v-.467h.143v.467h-.143zm1.286-1.87c-.048-.31-.31-.533-.786-.667l.036-.301.107-.433-.429-.201v-.434c0-.156.023-.322.072-.5.429 0 .833.212 1.215.634.381.424.548.835.501 1.235-.191.134-.429.357-.715.667zm-1.001 1.403v-.269h.357v.269h-.357zm.215-4.072c0-.089.047-.356.142-.801.095-.088.144-.222.144-.4 0-.221-.025-.401-.072-.534l.429-.401.715.201c-.24.267-.311.513-.216.734l.144.334c.046.133.118.311.215.534-.335.089-.62.156-.858.199l-.643.135zm.643-4.472c.19-.089.31-.133.357-.133-.047 0-.167.044-.357.133zm.858 7.561l-.286-.534h-.5c-.048.09-.072.201-.072.334.048.044.215-1.11.5-1.021l.358 1.221zm1.325-37.534v-.801c-.095.045-.872-.848-.967-.827-.097.023-.191.078-.286.167-.096-.267-.168-.489-.214-.668-.144-.044-.263.861-.358.861 0 .267.166.69.501 1.268h1.325zm-.858 16c0-.222.024-.401.072-.533l.786-1.043v1.577h-.858zm.463-14.858c-.097-.088-.227-.177-.394-.267l-.607-.334c-.143.223-.215.379-.215.467l.322.134.464.201.43-.201zm-.605 41.645v-.734l.175-.187c.62.178 1.002.557 1.144 1.134h-1.002l-.107-.132c-.024-.045.265-.436.218-.481l-.429.4zm-.182-39.91h.5v-.133h-.5v.133zm1.469 30.123c-.24-.133-.668-.266-1.287-.4v-1.401c.572.357 1.215.957 1.93 1.801h-.643zm-.61 2.379l-.359-.333c-.143-.135-.285-.312-.428-.535.047-.043.262.379.644.156 0-.311-.072-.534-.215-.667h1.645c-.095.445-.142.713-.142.802-.239.357-.62.088-1.143.577zm1.143 1.535l-.071-.1-.072-.101-.608-.099-.392-.033v-.468c.331-.222.547-.467.643-.734.571.09.858.289.858.601 0 .266-.12.579-.358.935zm-.82 4.086h.643c-.048.09-.419-.683-.466-.549l-.143.467c-.096.044.155.067.109.067l-.142.066v-.052zm.32-35.119c.095-.089.143-.335.143-.735l-.643.2c.046.09.214.267.5.535zm-.5.934c.618-.089 1.071-.2 1.358-.333l-.143-.2c-.143.044-.322.078-.536.1-.214.023-.441.078-.679.167v.267zm.142 8.408v-.133h.215v.133h-.215zm1.038 28.965v-.601.601zm-.038-41.778h.287v-.133h-.287v.133zm1.93 33.236c-.239-.088-.547-.177-.856-.267-.31-.088-.656-.177-1.037-.267v-.801c.19-.177.286-.467.286-.866l.427-.201c.167-.089.368-.177.609-.267.38.4 1.143.645 2.286.734l-.5.801-.643 1.068c-.239 0-.429.022-.572.066zm-1.787-36.906c.095-.044.214-.067.357-.067v-.4l-.143.234-.214.234zm.144 39.31c0-.134-.049-.335-.144-.601h.357c0 .4-.07.601-.213.601zm-.144 6.606c.095-.089.167-.266.214-.535.048-.266.095-.4.143-.4-.047.178-.07.346-.07.5v.367c-.143 0-.239.024-.286.067zm.144-43.514h.213v-.334h-.213v.334zm0 5.073c.143-.133.285-.245.429-.333l-.429-.133v.467zm.357-6.207c.095-.044.19-.311.286-.801h-.43c0 .089.048.356.144.801zm2.394 8.992v-.2c-1.001-.043-1.965-.94-2.108-1.518l-.43.133c.095.09.167.178.216.267l-.216.784c.382.044.762.223 1.144.533h1.393zm-2.108 33.32c-.096-.177-.24-.356-.43-.535.334-.133.644-.177.93-.133-.048.09-.12.179-.215.268-.097.088-.191.223-.286.4zm-.286-40.977h.286v-.201h-.286v.201zm.143 35.905c0-.355.023-.577.071-.666.143.132.214.312.214.533-.095 0-.19.044-.285.133zm.643-.666v-.134h.214v.134h-.214zm0 7.607c.047-.089.071-.222.071-.4 0-.178.024-.377.071-.601.144.134.216.423.216.868l-.143.066-.214.067zm.608-2.988c-.238 0-.357-.067-.357-.2h.642c-.047.266-.142.424-.286.467v-.267zm-.25 11.263v-.199h.143v.199h-.143zm.143-48.318h.214v-.467h-.214v.467zm.107 33.436c.095 0 .345.044.537.133-.192.133-.442.312-.537.533v-.667zm-.107 4.605c.048-.222.214-.377.5-.467v.467h-.5zm.214-33.302h.286v-.135h-.286v.135zm.286-3.003l.286-.133c-.048-.089-.072-.244-.072-.468l-.429.133c.047.046.118.2.214.468zm-.142 35.637l.142-.4.215.4h-.357zm.142-39.709c.572-.311.859-.577.859-.801-.286 0-.597.157-.929.468 0 .134.023.245.07.333zm.715 8.191c-.047-.311-.19.448-.429.448-.048.133-.072-.625-.072-.448h.5zm.358 24.911c.19-.088.333-.11.429-.067.047-.222.119-.467.213-.734.095 0 .262.067.501.199.094-.221.476-.288 1.143-.199v.467c-.714 0-1.382.199-2.001.6l-.286-.267zm.429 10.077c-.143-.133-.287-.243-.429-.334.19-.043.369-.067.536-.067.167 0 .297-.022.394-.066-.192.267-.358.422-.501.466zm-.287-2.803c0-.266.072-.401.215-.401l-.215.401zm.644-35.971l-.144-.401c-.142-.043-.262-.066-.357-.066.047.044.072.111.072.199 0 .089.023.178.072.267h.357zm0 32.254c-.192-.489-.239-.979-.144-1.468h.501l-.107.4c-.024.09-.035-.375-.035-.286 0 .09.047.357.143.801l-.357.553zm0 7.189c.19 0 .357.023.5.067l.216.433.142.301-.358.133-.5-.933zm1.144-7.275c-.191-.177-.286-.422-.286-.734.143-.133.453-.2.93-.2-.192.4-.406.711-.644.934zm.143 3.337l-.108-.266c-.023-.09-.083-.177-.178-.268l.644-.133-.144.267-.214.4zm.858-38.976c.095-.043.404-.267.928-.667-.095-.134-.454-.244-1.072-.334 0-.4.023-.644.072-.734.19-.088.381-.244.572-.467.19-.222.404-.511.644-.868-.621.045-1.358.4-2.216 1.068l1.072 2.002zm-1.001 5.473h.357v-.467h-.357v.467zm1.144 29.365c-.048-.133-.192-.377-.429-.734-.239-.355-.334-.601-.286-.734.858 0 1.287.446 1.287 1.335-.096 0-.286.044-.571.133zm-.644-30.099h.286v-.2h-.286v.2zm.786-4.271h.143v-.335h-.143v.335zm0 30.9c.095 0 .286.045.571.133-.334.09-.523.157-.571.2v-.334zm1.318-29.632c.19-.088.333-.133.429-.133 0-.222.023-.4.071-.534-.047 0-.213.045-.5.134v.533zm1.786 30.567c-.525-.178-1.484.244-1.961.154v-.2h2.175v.534c-.096 0-.168-.533-.214-.488zm-1.603-31.368c.095-.044.286-.11.572-.2-.048-.044-.12-.156-.214-.333h-.429c0 .178.023.356.071.533zm0 41.457c.095-.134.203-.3.322-.501l.393-.633h1.288c-.382.624-1.049 1.001-2.002 1.135zm1.002-36.919h.357v-.267h-.357v.267zm.142-6.216h.5-.5zm.214 33.98c0-.177.023-.312.072-.4l.214.4h-.286zm0 5.739v-.333h.143v.333h-.143zm.286-40.911h.214v-.133h-.214v.133zm.5 1.602c.047-.401.118-.667.214-.8l-.429.133c-.048.178-.072.401-.072.667h.286zm-.286 39.59h.644-.644zm.5-37.054h.429v-.333h-.429v.333zm.286 31.034v-.134h.143v.134h-.143zm.786-30.232v-.468h-.428c0 .045.047.2.142.468h.286zm-.286 37.252c-.047-.043-.071-.177-.071-.4.143-.043.333-.067.572-.067v.467h-.501zm.286-36.652c.144-.044.334-.067.572-.067.095-.133.047-.245-.143-.334l-.428.401zm.5 28.564c-.238-.222-.357-.422-.357-.601.143-.132.403-.177.785-.132.095.089.166.178.215.267l-.358.234-.286.233zm.358-30.111c.286-.088.476-.244.571-.467l-.285-.334h-.787c.048.267.215.534.501.801zm-.501 2.948h.143v-.267h-.143v.267zm1.574-10.745c-.24 0-.596.067-1.072.2l1.072-.2zm-.93 39.996h.5-.5zm.644 6c-.096-.089-.191-.211-.286-.367-.096-.156-.214-1.025-.358-1.247.238.132.738 1.036 1.501 1.347v.267h-.857zm-.143-37.854c-.095 0-.19.022-.285.067l.071.1.072.1.143-.267zm.358 30.699c-.048-.222-.071-.434-.071-.633v-.435c.189-.133.213-.288.071-.467-.239-.31-.358-.488-.358-.533l1.716.601c0 .091.012.845.035 1.021.025.179.06.38.109.601h-1.144c-.048.045-.072.201-.072.467l-.286-.621zm0-31.7c.095 0 .286-.044.572-.134-.047-.089-.168-.267-.358-.533-.191 0-.357.067-.5.2.047.044.084.111.107.2.024.09.083.179.179.267zm.43-1.402l-.287-.4c-.048.09-.071.2-.071.333s.023.245.071.333l.287-.267zm.213 5.206l.429-.401-.214-.266c-.191-.043-.405 0-.644.133l.429.534zm1.002-1.601c.238-.044.523-.067.858-.067-.287-.044-.501-.311-.644-.801.667 0 1.358-.556 2.073-1.668-.096.045-.214.078-.357.101-.144.022-.287.078-.43.166-.382-.356-.642-.577-.786-.667-.191.044-.357.178-.5.4.286.179.547.4.787.667-.286 0-.501.023-.643.067-.287.711-.644 1.067-1.072 1.067l.169-.467.429-.267v-.668c-.715.223-1.072.801-1.072 1.736.19.045.474.178 1.189.401zm-1.002 26.428c-.143-.31-.213-.578-.213-.801.331-.312.571-.489.713-.533.095.044.19.112.287.2.095.089.237.2.428.333-.096.267-.5.534-1.216.801zm.644-35.438c.381-.088.905-.155 1.573-.2-.715-.133-1.455-.155-2.217-.066.048.045.262.133.644.266zm1.051 42.662c.095-.489-.192-.734.19-.734v.734h-.19zm-.051-31c0-.355.023-.578.072-.667-.334 0-.668-.761-1.001-.45.046.044.072.996.072 1.017l.072.1h.785zm-.142 26c-.096-.356-.143-.956-.143-1h2.145l.285 1h-2.287zm.74-1l-.74-1h1.383v1h-.643zm-.598-23.648h.216v-.333h-.216v.333zm0 5.94v-.134h.216v.134h-.216zm.216 19.221c0-.311.166-.466.5-.466-.143.266-.31.422-.5.466zm.285-36.305h.215v-.134h-.215v.134zm0 4.005c.19-.178.381-.311.572-.401-.382 0-.572.134-.572.401zm.215 3.803h.285v-.333h-.285v.333zm.429 38.986l-.144-.201-.142-.81c.047-.044.237.611.572.611l.214.4h-.5zm.096-42h.5l-.24-1h-.26v1zm.26 27.374c-.095-.044-.178-.067-.25-.067-.071 0-.155-.022-.25-.066v-.467c.238 0 .43.023.572.067.046.045.118.223.215.534h-.287zm-.143 3.537l-.108-.134-.107-.133h.429c-.095.09-.167.178-.215.267zm1.287-28.23c-.049-.489-.477-.845-1.287-1.068 0 .179.31.535.93 1.068h.357zm-.644-8.681c-.047-.177-.167.352-.356.262l-.144-.262h.5zm-.5 12.953h.144v-.134h-.144v.134zm.144 41.779v-.269h.143v.269h-.143zm.356-47.919c0-.043.072-.11.215-.2-.144-.133-.311-.2-.5-.2l.285.4zm1.716.601c.143-.043.452-.067.928-.067 0-.178.025-.288.072-.333-.811-.356-1.239-.812-1.286-1.368-.049-.556.166-1.168.022-1.836-.048 0-.119.045-.214.134v1.002c-.143-.089-.524-.156-1.143-.201.047.045-.192.224-.096.535.144.09.287.145.429.167.143.023.261.056.358.1v.401l-.428.266.785 2.003c.334-.222.524-.49.572-.801zm-1.573-6.006h.144v-.334h-.144v.334zm0 7.607h.144v-.2h-.144v.2zm1.096 23.119v-1.134h-1v.934c.286.089.596-.139.739-.094l.261.294zm-.595-22.184c.143-.133.286-.243.429-.334-.382-.266-.643-.422-.785-.467l.142.335c.048.133.119.289.215.467zm0 20.088c.095-.177.19-.288.286-.333l-.143-.268-.143-.333-.107.067-.108.067c-.096.222-.024.49.215.8zm-.215 3.938v-.133h.215v.133h-.215zm.215-31.167c.046-.133 0-.2-.143-.2l.07.1.072.1zm.143 18.22h.357v-.468h-.357v.468zm.452 11.879c.429.091 1.143.18 1.238.268-.095.488-.809.756-1.238.8v-1.068zm-.096-25.961c-.095-.177-.19-.333-.285-.467l.429-.2c-.049.09-.072.178-.072.267 0 .089-.025.223-.072.399zm0 38.174c-.095-.177-.19-.333-.285-.467.285-.088.524-.132.714-.132.048.089.072.178.072.267 0 .089.024.178.072.267-.239 0-.429.023-.572.066zm.644-16.12l.143-.334c.047-.133.118-.653.213-.831-.238.089-.463.167-.679.233-.214.067-.37.488-.465.532l.286.4h.501zm-.357-11.309l-.215-1.001c-.143 0-.167.334-.072 1.001h.287zm.452 18.086l-.239-.133-.477-.2c.046-.223.404-.443 1.072-.668v1.001h-.357zm.549-31.033h.357c-.096-.355-.155-.655-.178-.901-.025-.244-.06-.456-.108-.634-.239-.044-.453-.067-.643-.067h-.428c.046.09.094.212.141.367.048.157.119.345.215.568.238 0 .38.022.428.067l.216.6zm-.644 49.854v-.134h.357v.134h-.357zm.357-10.277c.047-.177.118-.223.215-.134l-.108.067-.108.067zm.287-38.508c.19-.089.523-.133 1.001-.133v-.467c-.335.044-.692 0-1.072-.133 0 .356.023.6.072.733zm0 20.755l.213-.067.144-.066c-.049-.222-.072-.501-.072-.835v-1.167c-.095 0-.19.712-.285 2.135zm.357-25.494c.143-.044.333-.066.572-.066 0-.222.023-.4.072-.534-.097.045-.227.067-.394.067-.166 0-.346.023-.536.067.048.045.082.112.108.2.023.09.082.178.178.267zm.143 55.927v-.135h.214v.135h-.214zm.357-12.013v-.334h.144v.334h-.144zm1.501-16.35c.334-.043.608-.067.822-.067h.608l.214-.433.144-.3c-.477 0-.954.165-1.43-.103-.953 0-1.501.09-1.643.268h.785l.037.301c.023.11.058-.02.107.202 0 .045.118.091.357.134zm-1-22.825h.357v-.133h-.357v.133zm.143 27.096c0-.177.072-.467.214-.867.143-.043.286-.067.43-.067-.097.311-.311.623-.644.934zm.357 3.204l-.143-.067-.214-.067.143-.467c.143.133.214.333.214.601zm-.357 2.47c.095-.089.429-.134 1.001-.134 0 .09-.334.134-1.001.134zm.357-12.214c.43-.177.644-.378.644-.601l-.322.033-.465.101c0 .044.048.2.143.467zm-.143 7.608v-.267h.286v.267h-.286zm3.074-30.166c.381-.089.738-.142 1.072-.409l-.143-.4h-1.001c-.239-.311-.597-.511-1.072-.601l-.107-.625c-.024-.067-.203-.101-.536-.101.047.223-.096.434-.429.634-.334.2-.525.367-.572.5l.429.534c.429-.044 1.144-.11 2.144-.201.047.178.118.401.215.667zm-1.981 4.191v-1h-.663l-.143 1h.807zm-.163-6.793l.428-.267c-.097-.089-.167-.267-.215-.534h-.357c-.239.223-.382.378-.429.467.285.134.475.245.572.334zm-.287 4.138h.287c-.049-.089-.072-.19-.072-.301 0-.11-.025-.277-.071-.501h-.357l.213.801zm.144-2.67h.5c-.191.267-.357.423-.5.467v-.467zm.644 31.3c-.239-.533-.358-.888-.358-1.068 0-.177.047-.311.143-.4.429 0 .619.424.572 1.268-.049.044-.167.111-.357.2zm-.144-27.83h.144v-.334h-.144v.334zm0 3.804h.144v-.2h-.144v.2zm0 19.755c.047-.045.167-.067.357-.067 0-.177.025-.311.072-.4-.19.044-.334.199-.429.467zm.644 7.342l-.644-.135v-.467c.476-.089.977-.245 1.501-.467.095.179.143.29.143.333 0 .357-.334.601-1.001.736zm.501-31.835c.046-.133-.072-.378-.358-.735-.143 0-.24.023-.286.067.286.224.5.446.644.668zm.662 22.789h.501c0-.178-.532-.843-.556-1.133-.024-.288-.06-.611-.107-.967-.049.044-.382-.023-1.001-.201-.048.046-.071.112-.071.201.095.044.71.101.805.168.094.066.237.144.429.233v1.699zm-1.02 4.574c0-.043-.048-.111-.143-.201.143-.043.309-.066.501-.066v.267h-.358zm.143-19.154h.215v-.134h-.215v.134zm-.123 22.58v-1h.981v1h-.981zm.623-30.655h.215v-.133h-.215v.133zm1.216 1.935l.107-.067.107-.067c-.096-.177-.25-.367-.465-.567-.215-.2-.441-.433-.679-.701-.097.357-.143.623-.143.801.572.223.929.424 1.072.6zm-1 6.94c.095-.177.19-.333.285-.467h-.285v.467zm0 15.35h.143v-.332h-.143v.332zm.162-16.984l.644-1.586h-.644v1.586zm1.124 32.534c-.382-.355-.642-1.045-.786-2.068.19.445.762 1.001 1.716 1.668-.192.178-.501.312-.93.4zm1.358-7.474c-.192-.267-.692-.621-1.5-1.067-.049-.268-.072-.49-.072-.669v-.4c-.049-.044-.168-.111-.358-.201.047-.177.214-.266.5-.266.095.356.143.645.143.866.859.223 1.406.801 1.644 1.736h-.357zm.143-9.645l-.143-.401c-.81-.356-1.43-.853-1.858-.897.046.088.094.52.143.698.046.178.118.378.215.601h1.643zm-1.787-22.322c.047-.089.167-.222.357-.4-.143-.044-.262-.067-.357-.067v.467zm.501 25.79c.095-.177.144-.667.144-1.468h-.644v.401c0 .178.023.55.072.772l.429.199v.096zm-.357-21.986h.142v-.2h-.142v.2zm.5.733h.142v-.267h-.142v.267zm0 21.757c.285-.089.452-.133.5-.133l.357-.801h-.357c-.049.178-.121.333-.215.467-.095.133-.19.289-.285.467zm.357-25.494h.144v-.333h-.144v.333zm0 37.24c0-.443.046-.667.144-.667l.035.267.108.4h-.286zm.644-39.91h.143v-.2h-.143v.2zm.501 4.645c.143-.356.19-.231.143-.454h-.501c-.048.09.072-.035.358.454zm.017-1.642v-.533.533zm-.017 27.964l-.358-.934c.047 0 .214.044.501.133 0 .09.071.267.214.534l-.143.1-.214.167zm-.144-29.565c.047-.044-.222-.067-.125-.067.095 0 .19-.022.285-.067v-.601l-.357-.2c-.049.09.268.212.268.367 0 .157-.025.345-.072.567zm.144-1.135h.428v-.267h-.428v.267zm0 40.243v-.134h.285v.134h-.285zm.428-37.841c.333-.044.572-.133.716-.267-.335-.31-.597-.467-.787-.467l-.214.401.285.333zm.215 32.102v-.134h.142v.134h-.142zm.142-29.098c.476-.178.881-.422 1.215-.735-.049-.222-.072-.389-.072-.5v-.301c-.048.089-.167.257-.357.501-.191.245-.453.59-.786 1.035zm-.269 4.538c.142-.044.309-.067.5-.067v-.668h-.286c-.096.268-.168.512-.214.735zm.555 18.553c.046-.089.118-.267.214-.535.047-.043.143-.067.286-.067-.048.134-.072.311-.072.534-.191 0-.333.024-.428.067zm1 2.402c-.096-.267-.429-.601-1-1.002.428 0 .904.09 1.429.267 0 .223-.142.467-.429.734zm-.056 3.225l-.199-.622c-.142-.044-.372-.067-.801-.067v-.512h1v1.201zm-.944 1.247v-.335h.357v.335h-.357zm.5-33.303c.238-.044.404-.2.501-.467-.238.09-.406.245-.501.467zm.215 29.966c0-.446.166-.667.5-.667-.096.222-.168.49-.214.801l-.286-.133zm.786-22.224c0-.178.023-.289.072-.333h-.285c0 .09.071.2.214.333zm-.556 19.113h.357c.144.534.19.708.144.975-.144.045-.31.112-.5.2v-1.175zm.77-16.109c.095-.09.286-.201.572-.334-.335 0-.525.022-.572.066v.268zm1.144-3.024l-.143-.867h-.787c0 .49.19.779.572.867h.357zm.015 13.368h.343c-.049-.223-.071-.49-.071-.801 0-.311.038-.534.087-.667-.335-.089-.764 0-1.287.266v.601l.93.601zm.628 10.877c.095-.133-.034-.356.015-.667-.763-.445-1.287-.712-1.572-.801v-.645h1.285c.429.667.772 1.38.63 2.136l-.358-.023zm-.786-6.273v-.2h.143v.2h-.143zm0 2.161c0-.134.023-.245.071-.333h.43c0 .044.046.155.142.333h-.643zm2.43-19.113c-.049-.667-.024-1.111.072-1.334-.526-.134-1-.333-1.429-.554-.621.578-.93.912-.93 1.001h.858v-.401c.618.224 1.096.667 1.429 1.289zm-2.202-8.075v-.533c-.096 0 .175.045-.015.133 0 .178-.39.312-.343.4h.358zm.415 1.069h.358v-.133h-.358v.133zm.358 31.567c-.049-.089-.168-.223-.358-.4l.822-.101c.214-.023.416-.033.608-.033l.143-.535.573-.134.213.134c.095.046.191.112.286.201v.4l-1.358.233c-.382.067-.692.145-.929.234zm-.143-5.473c.095-.089.19-.133.286-.133-.096.178-.143.29-.143.333l-.143-.2zm.371-24.693c.572-.089.808-.222 1-.401v-.601c-.381.044-.62.178-1 .4v.601zm-.228 5.718h.643-.643zm.501 19.977c-.24-.223-.358-.445-.358-.669.047 0 .214.046.501.135 0 .267-.048.445-.143.534zm.727-27.564c.286-.088.5-.133.642-.133l-.584-.334h-.356l.584-.333h-.286v.801zm.345 1.587h.5-.5zm.857 7.757c.19-.043.406-.067.644-.067.095-.222 0-.556-.286-1.001-.714 0-1.12.246-1.214.735l.356.133c.144.044.31.111.5.2zm-.857 18.687c.046-.443.166-.756.356-.935h.358l.108.134.106.133c-.049.09-.119.268-.215.533l-.429.101-.285.034zm.214-2.537v-.133h.286v.133h-.286zm.142-15.817h.286v-.2h-.286v.2zm.144 12.614c.095-.045.237-.067.428-.067 0-.177.023-.311.071-.4l-.572.133c0 .133.023.245.073.334zm.142-14.124c.095-.089.333-.357.715-.581h-.857c.095.267.142.537.142.581zm.013 21.419v-.667c.285.09.392.178.631.267l-.141.4h-.49zm.345-27.852c.095-.177.19-.31.286-.4-.141 0-.239.134-.286.4zm.655 16.852h.655-.655zm1 3v-1.868c-.62.133-1.44.49-1.44 1.067 0 .313.095.58.286.801h1.154zm-1.01-13.51h.213v-.135h-.213v.135zm1.652 20.153c-.24-.311-.475-.621-.427-.934.286-.089.546-.154.785-.2v1.001c-.049 0-.169.045-.358.133zm-.796-8.376c.381-.089.881-.511 1.501-1.268h-.857c-.049.044-.072.199-.072.467-.096-.044-.31-.301-.644-.301v.333c0 .134.023.545.072.767zm.144 1.97c.095-.09.213-.234.356-.435.144-.199.334-.411.573-.634l-.107-.134c-.025-.043-.085-.089-.18-.133-.19.133-.405.579-.642 1.335zm.213 4.604c-.094-.133-.167-.333-.213-.601.237 0 .403.201.501.601h-.288zm.501-19.821c.143-.044.359-.067.643-.067 0-.089.047-.267.144-.534-.477 0-.74.2-.787.601zm2.073 17.952c.19-.089.31-.133.358-.133-.239-.088-.382-.244-.429-.467h-.358l.429.601zm0-11.746c.095-.088.226-.177.393-.267l.608-.335c-.239-.043-.524-.066-.857-.066-.095.356-.144.578-.144.667z" fill="#faaf3e"/><path d="M88.753 23.654c.751-.134 1.293-.311 1.628-.536.042-.268.229-.871.564-1.81.252-.714.376-1.317.376-1.809 0-.178-.02-.312-.061-.402-.21-.134-.377-.201-.501-.201-.335 0-.627.246-.876.737-.085-.089-.168-.145-.252-.168l-.25-.101c-.877 1.028-1.317 2.324-1.317 3.886.335.091.564.224.69.402zM79 4.154v-2.747l-.771-.201c0 1.386.229 2.369.396 2.948h.375zM93.373 59.505c-.876.133-1.03.38-1.113.736 0 .18.104.604.314 1.275.501-.178.57-.323.862-.436.292-.111.479-.189.564-.234v-.737c-.418-.133-.627-.335-.627-.602zM64.572 24c-.292 0-.542.023-.751.067-.168.268-.272.101-.313.19-.67-.044-1.066.592-1.191 1.217 1.63-.357 2.735-.848 3.32-1.474h-1.065zM146.133 26.871c.753-.223 1.254-.513 1.504-.871h.627c.125-1.25.354-1.987.688-2.211-.042-.178-.063-.391-.063-.503 0-.111-.02-.211-.063-.301-1.211.09-2.015.368-2.411.838-.397.469-.637 1.374-.721 2.714.041.045.104.079.189.1.083.023.166.146.25.235zM128.907 20.303c-.335.581-.501 1.184-.501 1.81.416-.134.584-.737.501-1.81zM153.462 37.062c.584.09.919.402 1.003.938h.535v-2.077c-.335.089-.637-.074-.909.061l-.566.334c-.042.046-.063.476-.063.744zM154.151 71.298c-.168 0-.557.078-.744.235-.189.156-.324.257-.408.302v1.674l.376-.133c.335-.894.734-1.586.776-2.078zM156.656 21.359c-.083-.312-.146-.714-.187-1.206-.168 0-.345.011-.532.034-.189.022-.387.056-.597.1-.335.492-.501.894-.501 1.206 0 .224.063.425.189.603.793-.178 1.336-.424 1.628-.737zM122.83 2.614c1.003-.446 1.628-.915 1.88-1.407-.335-.804-.774-1.206-1.315-1.206-.877 0-1.315.67-1.315 2.01.416.224.666.425.751.603zM91.697 4.021c-.168.224-.304.492-.407.804-.106.313-.199.648-.282 1.005.459-.134.69-.737.69-1.809zM92.761 19.299c.418-.044.731-.312.94-.804l.314-1.273c1.084-.357 1.774-.737 2.067-1.139.126-.223.395-1.072.814-2.546-.376.045-.981.38-1.817 1.005-.209.402-.814.961-1.817 1.676-.96.76-1.441 1.363-1.441 1.809 0 .447.314.871.939 1.273zM109.613 10.052l1.252-.603c.333-1.161.668-2.054 1.003-2.681-.877-.044-1.63.09-2.255.402-.794.402-1.191 1.05-1.191 1.943 0 .402.104.871.314 1.408.207-.134.501-.29.877-.469zM117.756 3.417c1.128-.312 1.691-.893 1.691-1.742-.25-.268-.501-.402-.751-.402-.836 0-1.252.492-1.252 1.474 0 .313.103.536.313.67zM115.5 20.438h.5v-1.742c-.041-.714-.272-1.116-.688-1.206-.085.938-.022 1.921.189 2.948zM113.934 3.551c.794-.402 1.263-.793 1.41-1.172.146-.379.177-1.061.093-2.044-1.879 0-2.693.916-2.444 2.747l.94.469zM154.126 77.128l-1.126-.604v1.476h1.253c0-.09-.018-.245-.476-.469.083-.089.313.157.688.067v.402h.69l.376-1.005c-.46.135-1.069.223-1.403.133zM155.217 73.643c-.46 0-.69.291-.69.87.585 0 .981.023 1.19.067l.126.269c.71-.135 1.066-.514 1.066-1.14.126-.043-.439-.067-1.691-.067zM150 17.892v.905c0 .246.287.48.33.703.251.09.418.157.501.201.834-.134 1.419-.469 1.754-1.005.209-.446.047-1.183.047-2.211-1.003.224-1.879.693-2.632 1.407zM149.829 77.998c.167-1.294.292-1.986.376-2.076-.585-.848-1.336-1.385-2.255-1.608l-.25.402c.25.179.416.313.501.402.126-.089.333-.157.625-.201.252.268.418.425.501.469 0 1.699.209 2.771.627 3.217h.376l-.187-.536-.314-.067zM148.169 76.524l.095-.469c-.294 0-.606.191-.939.57-.335.38-.501.726-.501 1.038.167 0 .333.023.501.067.166.536.353.938.563 1.206.251-.222.46-.356.627-.402-.25-.536-.376-1.072-.376-1.608 0-.133.011-.268.031-.403zM149.516 71.365c.083.491.167.916.25 1.272.084.358.146.649.189.871h.376c-.126-.446-.25-1.183-.376-2.211-.249 0-.397.023-.438.067z" fill="#221e1f"/><path d="M150.237 47.108c-.022-2.368-.032-4.332-.032-5.897-.5-3.797-1.086-6.567-1.754-8.309-.96-2.59-2.484-4.914-4.573-6.969l-1.189-.804c-.335-.223-.607-.424-.814-.603-.962-.625-1.756-.938-2.381-.938-.376 0-.647.09-.814.268l-.189-.436-.053-.301h-.438v.804c-.25 0-.418.023-.501.067l-.197.536c-.211-.089-.315-.312-.315-.67.041-.044.189-.067.439-.067.042-.402.103-.714.189-.938-2.548-.268-3.948-.446-4.198-.536-.042.09-.063.335-.063.737-.335-.044-.688-.268-1.066-.67-.751.045-1.409.067-1.973.067-.564 0-1.033.023-1.409.067-1.504.09-2.527.425-3.071 1.005-.084-.044-.166-.111-.25-.201-4.928 2.055-7.392 3.73-7.392 5.026.166.179.293.291.376.335-.166.224-.303.683-.406.884-.105.201-.199.347-.282.436h-1.441c-.043.134-.063.335-.063.603-.962.401-1.65.534-2.068.891-1.169-2.144-2.818-4.244-4.949-6.299-.375.179-.584.313-.625.402-.586-1.116-1.964-1.987-4.134-2.613-1.547-.446-3.217-.67-5.013-.67-1.419 0-2.442.157-3.069.469-.292-.178-.711-.268-1.252-.268-1.003 0-2.507.448-4.51 1.206-1.922.715-3.28 1.474-4.073 2.279h-.562c-.043-.134-.252-.413-.627-.838-.375-.424-.492-.86-.492-1.173-.166-.044-.501-.067-1.003-.067v-1.34c-.249 0-.563.201-.94.603-.084-.178-.218-.368-.259-.569l-.126-.637c-.25 0-.398.023-.439.067-.209.402-.335.76-.375 1.072-.293-.581-.439-1.117-.439-1.608 0-.357.25-1.117.751-2.279.292 0 .542.112.753.335 2.087-.357 3.132-1.273 3.132-2.747 0-.581-.168-1.452-.501-2.614-1.003-1.072-1.879-1.608-2.631-1.608-.126 0-.355.023-.69.067-.335.045-.793.112-1.378.201-.12.128-.199.321-.241.57-.122-.022-.558-.034-1.324-.034l-.095.536-.03.335c.501.09.814.201.939.335-.375.536-.564 1.028-.564 1.474 0 .224.114.648.345 1.273.23.627.344 1.31.344 1.712.292-.044.543-.067.753-.067h.394c-.211.67-.67 1.273-1.378 1.809v.634c.249.09.915.157 1 .201v.603c-.211.09-.408.157-.597.201-.187.045-.65.09-.734.134l-.314 1.005c-1.212 0-2.693.011-4.447.033-1.754.023-3.822.057-6.201.101-.085.224.333.536 1.252.938 1.043.492 1.373.804 1.541.938-.043 1.34-.209 2.168-.501 2.48v1.407-.067c.919-.312 1.587-.603 2.005-.871l-.163.201c-.335.268-.607.503-.816.703-.209.201-.355.368-.439.502.585.76.897 1.675.94 2.748.166.045.375.112.627.201-.836 1.385-1.378 2.637-1.63 3.753-.124.044-.272.078-.439.1-.166.023-.355.078-.562.167v.402c.25-.044.469-.078.658-.101.187-.022.364-.034.532-.034.249 1.072.564 1.765.939 2.077-.042.09-.105.178-.189.267.166.18.335.313.501.403-.042.09-.063.313-.063.67l-.501-.267c-.083.045-.25.2-.5.469-.294-.178-.607-.358-.94-.536.25-.269.605-.738 1.064-1.407-.376-.581-.897-.894-1.565-.939-.168.268-.314.827-.439 1.675.166.045.291.091.376.135l.25.135c.041.044-.167.178-.626.402-.247.335-.422.607-.536.827 5.166 1.007 9.878 4.01 12.926 8.213.064-1.315.151-2.237.263-2.741.459-2.367 1.461-4.355 3.007-5.964.084-.491.166-.914.25-1.273.083-.358.166-.77.251-.994-.878-.044-1.504-.492-1.879-1.34h.562c.209 0 .481.023.816.067l-.063-.313c0-.111-.022-.212-.063-.302-.251-.089-.46-.156-.627-.201-.084-.312-.063-.581.063-.805l.501-.134c0-.536.02-.871.063-1.005.376.626.522 1.385.438 2.278l.469.267c.146.091.262.179.345.268-.126.091-.229.291-.313.603 1.628-.178 2.694.157 3.195 1.005-.043.09-.063.245-.063.469.585.046 1.076.09 1.472.135.397.045.741.089 1.035.134 1.669.894 2.777 2.055 3.319 3.484.418 1.072.667 2.748.753 5.026.333 0 .542.023.625.067l-.582.135-.25.134v3.082c-.043 1.52-.294 2.412-.753 2.681.083 2.502.917 4.087 1.837 4.757-.168.135-.52.291-.646.469-.042-.044-.189-.067-.438-.067v4.959c.209-.312.355-.491.438-.536.252-1.518.896-2.367 1.147-2.546.207-.222 1.023-.513 2.444-.872 1.001.939 1.502 1.9 1.502 2.882 0 1.028-.459 1.833-1.378 2.412-.793.492-1.67.737-2.63.737-.335.536-.731.849-1.19.938-.043 1.162-.075 2.168-.095 3.015-.02.849-.03 1.587-.03 2.212.333-.044.625-.201.877-.469l.219-.268.469-.604.602 1.274c.124.58.333.961.626 1.138v1.027c-.626.091-1.149-.089-1.565-.536h-.633c-.146 0-.304.023-.469.067.082.402.061.827-.063 2.257l.343-.034.534-.1c.041.046.063.135.063.267 0 .358-.294.671-.877.939-.085.536.02.822.313 1.135-.042.046-.063.201-.063.469h1.567v-.336c-.085-.043-.251-.329-.501-.329v-.335h2.318c.166.402.438.598.814 1h4.134l-.126-.402c-.836-.268-1.524-.354-2.066-1.203.459.044.877.09 1.252.134.376.045.71.112 1.003.201.084-.58.146-.96.187-1.139.252 0 .398.023.438.067.166.67.335 1.028.501 1.072.126-.135.345-.469.658-1.005.303-.518.576-.865.819-1.049-.063-.097-.241-.702-.537-1.832.209-.044.459-.067.753-.067.124.134.187.559.187 1.273.376 0 .627.023.753.067.084-.223.167-.356.25-.402l.329.135c0 .402-.438.803-1.315 1.205v.671c0 .267.02.581.063.938.416-.043.756-.078 1.049-.099.29-.023.542-.034.751-.034.041-.938.104-1.653.189-2.144.084.044.322.079.447.101.126.022.293.078.501.167v.536c-.418.09-.647.135-.689.135l-.135.335c1.544-.178 2.317-1.362 2.317-3.552 0-.223-.01-.435-.03-.636-.022-.202-.052-.412-.093-.636-.294 0-.501.022-.627.066-.043.626-.23 1.184-.564 1.675.209.314.314.536.314.67 0 .313-.273.492-.816.536-.04-.269-.053-.593-.03-.973.02-.378.063-.77.126-1.172.063-.402.124-.781.187-1.139l.095-.431c.165-.044.386-.067.658-.067h.97c.292.671 1.066 1.431 2.318 2.278.25-.089.341-.517.529-.539.189-.023.345-.056.471-.101v-.502c0-.202.02-.436.061-.704-.459 0-.623.023-.749.067-.124-.268-.252-.602-.252-1.005.124-.044.439-.067.939-.067v-3.082c-.124-.044-.396-.111-.814-.202.083-.178.524-.402.942-.669 0-.135-.063-.358-.189-.67-.126-.313-.317-.536-.317-.671 0-.222.126-.402.377-.535v-.837c0-.336.02-.705.061-1.106l-.311-.134c.084-.625.167-1.228.252-1.81.083-.58.146-1.116.187-1.608-1.001.09-1.734-.244-2.192-1.004.292-.313.647-.581 1.066-.806l.03.269.095.402c.083.045.197.078.343.1.146.023.323.079.534.167.166-2.321.291-3.551.376-3.684 2.213.044 4.049-.068 5.512-.336-.042-.268-.188-.491-.438-.67.041-.044.146-.067.313-.067.126 0 .282.011.471.034l.721.101c-.085-.447-.126-.715-.126-.804-.209-.09-.387-.178-.532-.269-.148-.089-.261-.178-.345-.268.207-.357.438-.581.688-.67 0-.625-.104-1.006-.313-1.14l-.126.202c-.043.089-.104.178-.187.267-.126-.356-.211-.558-.252-.602l.126-.201.126-.134c.207 0 .459.068.751.202.292.133.522.2.69.2-.043-.311.104-.648-.147-1.006.209-.044.418-.066.627-.066v-.536c.584-.223 1.56-.738 1.978-1.541.417-.849.562-1.385 1.022-1.609v-.871c-.334-.224-.606-.424-.814-.604-.21-.178-.871-.313-1.038-.402 1.003-.178 1.567-.514 1.691-1.005-1.462.134-2.422.2-2.881.2-.126-.133-.357-.491-.69-1.072-.335-.58-.627-.938-.876-1.072l-.094-.269-.095-.267c-.124-.044-.438-.067-.94-.067v-.602c.377-.313.856-.514 1.441-.604h1.296v-2.144c.084-.089.187-.068.313-.068l.772 2.345c.166.268.834.626 2.005 1.073.459.358.897.771 1.315 1.239.416.469 1.381.949 1.716 1.441.46 1.921.753 4.154.879 6.701v6.834c.041 0 .189.046.438.135-.418.09-.987.134-1.027.134-.085.268-.126.424-.126.469.167.045.333.112.501.201l.501.268c-.042.044-.474.201-.474.47-.46.267-.731.602-.814 1.004v1.898h.313c0 .223.147.358.189.402l-.501-.089v.737l1-.469v1.073l.751-.123c.252.09.643.246.726.469h1.523v1h-.501c.083.224-.26.436-.238.637.02.201.051.072.093.161-.25 0-.398.023-.439.067l.126.335c.166-.134.625-.2 1.378-.2.084.267.146.502.187.704.043.199.083.699.126.832l.126-.536h1.315c-.042.045-.063.224-.063.536-.292.091-.452-.174-.641-.129-.187.044-.345.09-.469.134v.67c.25.046.605-.067 1.064-.335.167.044.235.067.359.067.126 0 .23.022.314.066.041.359.23.783.564 1.273 0 1.475.04 2.345.124 2.614 1.42.133 2.131-.135 2.131-.805 0-.222-.022-.569-.063-1.038-.043-.469-.063-.814-.063-1.039.876-1.341 1.315-2.301 1.315-2.882-.292 0-.543.023-.751.067-.085-.356-.126-.58-.126-.67-.126 0-.23.179-.313.536-.587-.713-.877-1.563-.877-2.546-.335-.135-.586-.202-.753-.202l.126-.603c.041-.178.083-.311.126-.402.083-.044.207-.067.376-.067.083.225.146.425.187.604l.126.468c.877.269 1.151.76 1.32 1.475.126 0 .396.045.814.134v-1.173c0-.336.02-.614.063-.838.041.179.318.324.341.435l.03.302c1.045.09 1.671.224 1.88.401-.041.134-.061.515-.061 1.139l.376.202c-.043.044-.063.178-.063.402l-.688.135c-.249.044-.542.112-.876.2v1.072c-.209-.043-.398-.067-.565-.067l-.377.316c-.293 1.475-.688 2.324-1.19 2.547h.501c.041.135.063.246.063.335 0 .09.02-.136.063-.047l-.377.201v.403c.501-.045.94-.078 1.315-.101.377-.023.711-.321 1.003-.321-.292-.135-.438-.29-.438-.469h1.002v.67c.501 0 .834.311 1.003.355.041.09-.271.225-.188.402.126-.044.314-.067.564-.067-.167-.625-.209-1.116-.126-1.474.209 0 .355.023.438.066.167.448.272.738.314.872l.406-.101.282-.033c0-.536.037-1.005-.13-1.407-.209 0-.398.09-.565.268v-1.675l1.003.536c-.126.089-.475.223-.558.402.333.67.647 1.028.94 1.072.041.089.063.2.063.335 0 .268-.168.447-.501.536.04.312.187.514.438.603-.043.09-.063.178-.063.267 0 .091-.022.157-.063.202-.209-.135-.905-.202-1.196-.202-.042.225-.063.436-.063.637v.804c.207-.045.386-.068.532-.068h.468v1h1.565c0-.67.468-1.094.51-1.273.083-.044.313-.094.69-.094.041-.536.207-1.027.5-1.475-.124 0-.313.088-.562.177-.043-.043-.063-.156-.063-.335h.814l-.313-1.005-.564-.243c0-.268.02-.424.063-.469.417-.089.668-.135.751-.135.04.359.103.56.188.604.167.09.313.146.439.167.126.023.229.056.313.101-.25-2.724-.376-3.841-.376-3.35-.876-.134-1.358-.491-1.441-1.072-.083-.581-.166-1.183-.25-1.81l.187-.167.126-.1c-.043-.447 0-.849.126-1.207.376 1.251.65 1.876 1.361 1.876-.043-.134-.063-.58-.063-1.34v-1.307c0-.513.02-1.082.063-1.709-.209.091-.098.146-.202.167-.105.023-.199.057-.282.101-.168 0-.272-.201-.314-.602.418-.178.774-.312 1.066-.401-.167-1.385-.376-2.167-.625-2.346.124-.133.333-.223.625-.268-.043-3.217-.073-6.008-.094-8.376zm-76.832-20.304v-.335c.041 0 .188.045.439.134-.25.09-.398.157-.439.201zm1.254-.335h-.188v-.201h.188v.201zm1.565-.134l.189.469h-.375c.083-.268.144-.424.187-.469zm-1.002 1.005h-.25v-.335h.25v.335zm3.101 3.987c-.063.291-.178.758-.345 1.07-.335 0-.501.201-.501.603h-.562c-.501-.089-.836-.156-1.003-.201-.168-.848-.042-1.684-.042-2.175 0-1.384.711-1.987 2.131-1.809v1.072c.083.224.313.402.688.536-.041.313-.303.615-.366.905zm2.411-7.539c-.041-.178-.02-.357.063-.536-.043.091-.063.268-.063.536zm4.01 11.123c-.043-.223-.063-.412-.063-.57 0-.156-.022-.278-.063-.369.209 0 .313.112.313.335 0 .134-.063.335-.187.603zm3.508-7.17h-.189v-.402h.189v.402zm.501-1.742h-.501.501zm1.065-1.206h-.189v-.268h.189v.268zm8.182 34.206h-.313c-.042-.133-.063-1.171-.063-1.708.166-.089.292-.134.375-.134v1.842zm1.903 1c-.209-.312-.314-.78-.314-1.408.084-.088.189-.517.314-.561.126.447.23 1.165.313 1.433.084.269.146.447.189.536h-.501zm1.565-4.516h-.376v-.135h.376v.135zm9.389 1.638c.125.067.769.256 1.95.573.124.627.166 1.206.124 1.742h-.376c-.209-.357-.313-.647-.313-.871 0-.178.041-.312.126-.402-.586-.089-.877-.268-.877-.536-.377-.043-.627-.111-.753-.201l.118-.305zm1.449 4.258c-.126 0-.313.046-.564.134.083-.089.166-.156.251-.202l.25-.134c0 .09.02.157.063.201zm-1.128-2.547l-.375.034-.564.127c.418.358.731.693.94 1.005h-.501c-.501-.76-.773-1.251-.814-1.475.126-.135.355-.339.69-.562.25.179.459.469.625.87zm0 3.166h-.688c-.209-.268-.481-.463-.814-.687.124-.178.291-.318.5-.318.46 0 .794.334 1.002 1.004zm-.876-4.975l-.126-.269.314-.133-.189.402zm-1.003-21.376h.126v.402h-.126v-.402zm-3.319 16.417c1.126 0 1.754.492 1.88 1.475.165.09.479.224.938.402-.041.09-.061.268-.061.536-.251-.134-.586-.201-1.003-.201l-.063.201c-.292.67-.398 1.14-.313 1.407.333.091.605.135.814.135.209 0 .876-.178 2.004-.536v.402c-.293 0-.48.023-.563.067-.294.849-.398 1.541-.314 2.078-.166 0-.292.022-.376.067 0-.984-.376-1.475-1.127-1.475-.67 0-1.025.535-1.065 1.607l.375.202c-.042.046-.063.179-.063.402-.25-.089-.469-.156-.658-.201-.187-.044-.323-.09-.406-.134-.085.178-.148.334-.189.469-.042.133-.252.246-.292.335.084 0 .252.046.501.134v.563h-.688l.167-.336-.377-.026c.083-.268.167-.502.251-.703l.189-.436c-.712-.269-1.214-1.005-1.504-2.212-.043-.089-.105-.378-.189-.87-.083-.491-.167-1.162-.249-2.01.459-.893 1.252-1.34 2.38-1.34zm3.444 8.711l-.126.335c-.084-.133-.146-.201-.187-.201.167-.089.27-.135.313-.135zm-.501-2.278c-.083.267-.126.492-.126.67-.25.045-.469.09-.658.134-.186.046-.322.091-.406.134-.042-.089-.105-.178-.188-.268l.783-.368.595-.302zm-4.948 5.897c.041.178.084.325.126.436l.124.301h-.313c0-.267.02-.512.063-.737zm-.313-5.562v-.334h.25v.334h-.25zm.376 3.82v-.403c.084.046.157.067.219.067.063 0 .134.024.219.067-.209.09-.355.179-.438.269zm.376 4.154h.313v.135h-.313v-.135zm-1.567-8.511h.314v.202h-.314v-.202zm-1.347 7.703h.501-.501zm-.782 1.009c.25.18.417.292.501.336-.209.045-.438.112-.689.201l.188-.536zm-.688-1.138c.124 0 .207.022.25.067-.043.133-.063.469-.063 1.005-.209-.492-.272-.849-.187-1.072zm-.558 11.123l-.47.269v-1.408c-.083-.044-.75-.067-1-.067v-.788h.376c.166 0 .503.023.713.067 0 .401.187 1.145.563 1.726-.084.044-.036.111-.181.2zm-.095-4.221h-.376v-.871c.166-.088.313-.177.438-.268l.276-.201c-.083.358-.172.804-.339 1.341zm.527 3.216c.207-.311.396-.491.564-.535-.085.179-.273.358-.564.535zm.25-2.814c.041-.223.073-.446.095-.67.02-.223.071-.446.156-.67.751.223 1.273.424 1.565.603-.084.447-.166.815-.25 1.106-.085.291-.168.547-.251.77l-.313.2-.25.135c.041-.536-.21-1.027-.753-1.474zm1.315 4.624h-.376v-.135h.376v.135zm.158-1.133l-.032.335h-.597c.084-.625.418-1.049 1.003-1.272v.06l-.376-.135c-.043.224.022.878.002 1.012zm.469.597l-.126-.336-.124-.268c.041-.135.124-.268.25-.402h.438c0 .492.02.804.063.938-.252 0-.418.023-.501.067zm-.126-15.186c-.084-.177-.146-.361-.187-.495l-.126-.335.408-.745c.103-.2.197-.368.28-.501h.501c-.292 1.161-.584 1.854-.876 2.077zm1.03 3.923v-.536l.224.004.093.23.03.302h-.347zm.161-4h.501c-.085.447-.189.693-.314.736-.083-.267-.146-.513-.187-.736zm1.565 14.324c-.25-.312-.376-.647-.376-1.005 0-.09.041-.224.126-.403.376.403.585.871.626 1.408h-.376zm.189-3.351c0 .225.156.525.469.904.314.38.471.636.471.771 0 .223-.126.425-.376.604-.586-.625-.982-1.229-1.191-1.81l-.186.067-.126.067c-.126-.178-.313-.915-.564-2.21.083-.044.251-.067.501-.067v.469c1.003 0 1.92-.111 2.756-.335-.418.804-1.003 1.319-1.754 1.541zm1.588-5.973c-.668-.267-1.169-.558-1.502-.871v-.594c.751.09 1.231.07 1.441.225.207.159.394.571.603 1.24h-.542zm.417 1.35l-.126-.269c.417.046.751.18 1.003.403l-.753.133-.124-.267zm.814 2.144l.126-.67c0 .359-.043.581-.126.67zm2.192 1.407c-.25.133-.428.323-.532.793-.106.469-.199.905-.282 1.307h-.877l.626-2.345c.377-.178.564-.334.564-.692 0-.133-.01-.279-.03-.435l-.095-.57c.501.09.71.737.627 1.943zm-1.427-4.901h-.765.765zm1.427-3.14l-.751-.202c-.335.536-.481.916-.439 1.139.418.172.747.29.992.356-.229-.014-.639-.022-1.243-.022-.376.402-.814.627-1.315.671l-.501-.134c-.084-.178-.167-.518-.25-.764-.085-.246-.168-.546-.251-.904h1.693v-.336c.708 0 1.104-.094 1.189-.14 0-.446-.105-.938-.313-1.474.124-.044.396-.066.814-.066 0 .224.02.401.063.536.751.134 1.106.267 1.063.402-.418 0-.688.023-.814.067l.189.133.376.201c-.209.135-.376.312-.501.536zm4.008 4.088c-.375.223-.688.401-.94.535l-.625.335c-.043-.178-.063-.345-.063-.503v-.368l1.127-.336c.292-.09.543-.156.753-.2.207.402.353.76.438 1.072-.251-.134-.481-.312-.69-.535zm.877-7.948h.94v.844c-.209.09-.365.179-.469.268-.106.09-.199.157-.282.201v-.402l-.376-.51c.041-.178.104-.312.187-.402zm-.313.911c0 1.34.522 2.101 1.566 2.278-.085.627-.231.939-.438.939-.085 0-.251-.044-.501-.133-.251-.09-.438-.135-.564-.135l.501.536c-.085.134-.168.302-.252.502l-.249.637.408.771.28.57c-.751 0-1.378-.269-1.877-.804-.043.09-.095.235-.158.435l-.219.704-.438.135c-.124-.178-.23-.558-.313-1.14.167-.043.302-.067.408-.067.103 0 .197-.758.28-.802-.041-.044-.061-.156-.061-.335h-1.88c.124-.178.228-.267.313-.267l-1.128-.269c.209-.089.397-.145.564-.168.167-.022.314-.056.438-.101 0-.267.209-.424.627-.469.167-.402.417-.714.751-.938.167-.043.564-.111 1.191-.201-.628-.446-.94-.804-.94-1.072 0-.269.564-.469 1.691-.604zm.69-26.268c-.085-.268-.148-.491-.189-.67.167 0 .313.023.438.067 0 .224.02.425.063.603h-.313zm7.811-5.763h-.376c-.043-.178-.063-.58-.063-1.206.126-.044.272-.067.439-.067v1.273zm0-3.345v.664-.665zm2.274-1.547c.041-.089.103-.178.187-.268l.314.067c-.251.09-.418.157-.501.201zm2.631 4.155h-.25v-.201h.25v.201zm.126-4.49h-.126v-.402h.126v.402zm9.083 34.912c.292.313.395.58.313.804l-.658.202c-.272.089-.574.178-.907.267 0-.58.071-.938.219-1.073.147-.133.49-.2 1.034-.2zm-.877-24.459v-.134h.313v.134h-.313zm.764-5.376v-.789 1.057h-.237c0-.178.028-.268.237-.268zm-1-1.732h.501-.265-.236zm-.829-1.335h.188v.402h-.188v-.402zm.564 30.02v.201h-.376v-.201h.376zm-.091 4.155c-.209.447-.518.693-.644.737v-.67c.126-.044.435-.067.644-.067zm-2.227-36.164c.711.09 1.066.191 1.066.324h-1.066v-.324zm.439 3.999c-.043.179-.106.402-.189.67-.083 0-.209.045-.376.134-.209-.446-.335-.737-.376-.871.501 0 .814.023.94.067zm-1.856-1.407c.083.045.167.067.251.067.084 0 .146.023.187.067-.249.179-.395.313-.438.402v-.536zm-1.622-3.384c.147-.022.282-.033.408-.033.709 0 1.064.268 1.064.804 0 .805-.459 1.363-1.378 1.675-.418-.893-.625-1.675-.625-2.345l.532-.101zm-.594 5.864l-.189.335-.125-.268c.084-.044.187-.067.313-.067zm-.784 5.025v-1.34c.418-.178.981-.245 1.691-.201-.668.447-1.232.961-1.691 1.541zm2.162 21.175h-.376v-.201h.376v.201zm.25-21.947h.689c.167 1.072-.022 1.912-.564 2.046-.25-.134-.376-.615-.376-.974 0-.357.084-.715.25-1.072zm-.187 22.684c.126-.044.282-.089.469-.133.189-.044.428-.089.72-.135-.042.09-.063.291-.063.604-.25-.09-.469-.157-.658-.202-.187-.044-.343-.089-.469-.134zm.501 5.629l-.189-.235-.126-.167c.042-.043.166-.067.377-.067.041.046.071.113.093.202.02.089.071.178.157.267h-.313zm.313-1.675h-.189v-.201h.189v.201zm.909 3.217l-.571.135-.377-.202v-.737c.083 0 .335.046.753.133 0 .269.372.447.415.536l-.219.134zm.03-2.278c.417-.044.668-.044.751 0 .043.044.104.292.189.737-.168-.267-.481-.512-.94-.737zm1.19 3.752h-.25v-.201h.25v.201zm.438-5.328c-.167-.022-.292-.47-.376-.47 0 .178.02.335.063.469h-.688c-.418-.313-.846-.672-1.284-1.031-.439-.357-.595-.389-.471-.969h.753c0 .804.187 1.205.564 1.205.124 0 .291-.085.5-.309-.335-.356-.585-.715-.751-1.073.627.091 1.107.335 1.441.738l.345.602c.146.268.303.581.469.938l-.564-.101zm3.321 9.818c.041-.089.103-.178.189-.268.083 0 .166.022.249.066-.249.091-.397.158-.438.202zm.189-1.474c-.085.224-.148.425-.189.604l-.25-.135-.251-.135c0-.536.189-1.005.564-1.407.668-.043 1.003 0 1.003.135l-.627.134c-.083.314-.167.581-.249.804zm1.252-.402h-.376v-.135h.376v.135zm-.25-1.341c-.294.044-.501.112-.627.201.041-.134.25-.201.627-.201zm-.627-1.675h-.375v-.202h.375v.202zm-.375-.938c-.085.267-.136.502-.157.704-.022.2-.053.368-.095.501-.335.135-.793.202-1.378.202.667.625 1.149 1.073 1.441 1.34-.166.045-.292.091-.376.135l-.249.133c-.252-.133-.544-.245-.879-.335-.041-.09-.061-.267-.061-.536-.919-.177-1.463-.402-1.63-.669.084-.044.167-.067.252-.067.083 0 .166-.022.249-.067 0-.491.02-.804.063-.938-.252-.089-.135-.156-.176-.202.834-1.205 1.462-1.83 1.88-1.876v.671l.751.2-.263.47-1.252-.201c0 .67.376 1.094 1.127 1.273.126-.491.377-.736.753-.736zm.501-2.413c-.168-.58-.438-.938-.815-1.072.251-.224.543-.291.878-.202-.043.18-.063.604-.063 1.273zm-.314-31.695l-.532-.1-.345-.034c.126-.58.251-.96.376-1.139l.94.201.126.536c-.292.313-.481.492-.565.536zm2.698 27.119h-.818.818zm1.374 0c-.166.09-.293-.378-.376-.289-.043-.089-.104.378-.187.289h.563zm-.25 3.974v.267h-.126v-.267h.126zm-.564-28.212c.083.268.146.425.188.469h-.314c0-.044.043-.201.126-.469zm.44 30.155v-.604c-.126.046-.044.113-.377.202-.083-.358-.146-.604-.189-.738l.252-.133.313-.201c.501.359.481.737.564 1.139-.292.134-.479.246-.562.336zm1-33.917h-1.004c.083-.223.419.323 1.004.144v-.144zm-.687 40.617c-.085-.089-.148-.178-.189-.267l-.126-.202.314.135c.124.046.27.112.438.201l-.438.133zm4.384-38.53c-.083.536-.166.827-.249.871-.043-.223-.063-.413-.063-.57 0-.156-.022-.278-.063-.369.126 0 .25.023.376.067zm-.697 28.21v.804l-.375-.268c.083-.223.207-.402.375-.536zm-1.182-30.69l.126.101.126.1-.314.335c-.041-.044-.063-.134-.063-.268 0-.089.043-.178.126-.268zm.438 22.246c-.084.269-.126.447-.126.537l-.125-.268-.126-.269h.376zm-.814-14.854c.041.045.063.113.063.202 0 .089.02 1.095.063 1.184l-.376-.917c-.085-.223-.251-.378-.501-.469h.751zm-.25 20.886v.135h-.314v-.135h.314zm-.627-5.226v-.269h.126v.269h-.126zm-.565 16.877v1.617-1.617zm.815.21c-.418.135-.688.425-.814.87 0-1.161.292-1.63.876-1.407-.042.135-.063.312-.063.536zm2.318-1.34h-.376v-.202h.376v.202zm.243-2.614h-.376v1.139l-.882.502c-.335.202-.701.459-1.118.77v.604h-.376c-.168-.223-.185-.446-.185-.671 0-.267.335-.558 1.003-.87-.209-.67-.335-1.116-.376-1.34.472.084.713-.078.74-.47l-.052-.201c-.041-.223-.103-.625-.187-1.206.207-.491.27-.871.187-1.139h.438c0-.268.02-.446.063-.536.292.046.501.179.627.402-.292.358-.397.649-.313.872.082-.178.165-.29.249-.335.084.091.23.135.439.135.083 0 .333-.044.751-.135.167.894.292 1.52.377 1.876.054.233.088.34.107.346-.041.4-.383.667-1.046.794-.043-.089-.072-.268-.072-.536zm1.624 7.207h-.376c-.251-.268-.418.007-.501-.037.126-.044.417-.066.877-.066v.104zm.24-2.249c.083-.089-.323-.135-.24-.135v1.541c-.167-.491.24-.959.24-1.407zm-.24-1.407v-.536c.167 0 .314.023.438.067-.166.133-.313.291-.438.469zm1-1.88v.536h-.988l-.187-.603c-.126-.044-.273.137-.438.137-.168 0-.357-.021-.565-.066 0-.135.041-.291.126-.469h.814c.083.089.422.291.548.603.333 0 .564-.182.69-.138z" fill="#faaf3e"/><path d="M123.332 64.329c.627-.178.939-.804.939-1.876-.376 0-.773.157-1.191.469 0 .581.083 1.05.251 1.407zM129.532 76.524c.043.135.105.302.189.504.083.2.44.458.523.77 1.003-.358 1.588-.625 1.756-.805v-.603c-.627-.403-1.045-.603-1.255-.603-.292 0-.879.246-1.213.736zM132.414 65.2c-.126-.044-.975-.111-1.726-.2-.25.223-.481.469-.688.736v.703c0 .291.02.66.061 1.106.335-.089 1.058-.19 1.351-.302l.94-.368c0-.135.043-.335.126-.604.083-.043.292-.067.627-.067-.126-.536-.355-.87-.69-1.005zm-1.063 1.466c-.085-.312-.148-.576-.189-.665h1.126c-.335.223-.647.576-.938.665zM113.372 74.179c-.252 0-.501.135-.752.402.083.402.146.771.188 1.106.041.335.084.614.124.837.335-.044.648-.223.94-.536l.126.336.408-.77c.103-.202.197-.346.282-.436-.711-.625-1.151-.938-1.315-.938zM115 75.586c.041.581-.063 1.184-.313 1.809l.093.134.094.134c.459-.223.816-.512 1.065-.87-.126-.714-.438-1.116-.94-1.207zM142.532 72.57c-.355.269-.493.649-.408 1.139.417-.089.793-.145 1.128-.167.333-.022.605-.057.814-.101.041-.133-.063-.514-.314-1.139-.459-.089-.867 0-1.22.267zM133.009 71.365c.02.447.053.982.095 1.607.167.09.271.157.313.201.459-.089.601-.201.895-.335.291-.135.522-.246.688-.335v-1.675c-.584-.402-1.338-.604-2.255-.604 0 .313.243.693.264 1.14zM82.3 20.438v-.134h.189v.134h-.189zM105.729 58.499c-.043-.043 0-.067.126-.067l-.126.067zM112.556 55.484h.189v-.135h-.189v.135zM114.624 70.494l.376-.134-.376.134zM145.445 64.53c.249-.09.396-.134.438-.134-.043 0-.189.044-.438.134zM148.765 73.509v-.2h.124v.2h-.124zM150.33 58.499v-.202h.126v.202h-.126z" fill="#221e1f"/><text x="13.007" y="94.055" fill="#221f1f" style="text-align:left" font-size="14" font-family="A bite" color="#221f1f"><tspan><![CDATA[Obstaclemaniac]]></tspan></text><path d="M22.695 52.456l-.063-.082.063.082zm16.841 8.14c-.67.985-1.062 1.474-1.589 1.637-.953.294-1.638-.602-1.638-.602s-.247-2.499-.866-2.747c-2.132-.851-1.108-1.71-1.108-1.71.772-.723 2.938-.339 2.938-.339l-.844-.529-.674-.194c-1.287-1.125.223-2.271.223-2.271 1.775.657 2.376.345 2.376.345.954-1.438 3.153-1.109 3.153-1.109.079-.636 1.35-2.144 1.35-2.144.89-2.673 1.89-4.138 1.89-4.138-5.784 4.773-6.545 5.218-10.607 5.536-.893.071-3.842.605-4.824.667-2.287.148-4.138.555-5.33.221-.73-.205-1.124-.57-1.281-.749 7.152 9.023 3.598 14.787 3.598 14.787.95 1.175.95 1.843.95 1.843 4.348-1.43 15.228.311 15.228.311 3.106.475 4.671-.345 4.671-.345l.996-3.872c-.504-3.167 2.525-6.534 2.525-6.534.78-6.09 3.865-2.907 3.865-2.907 1.171-3.417 5.047 3.065 5.047 3.065 3.256.902 1.565 4.685 1.565 4.685-.358.85-1.465 3.023-1.465 3.023s.044.143-1.638 2.468c-1.686 2.326-1.799 3.312-1.799 3.312-1.82 5.28-10.807 8.125-10.807 8.125-10.867 3.995-24.139.972-24.139.972-8.754.116-7.037-4.834-7.037-4.834-1.528-2.899-2.189-4.883-3.04-7.646-.037-.115-.171-1.164-.213-1.274-2.547-6.513-2.676-11.757-2.676-11.757-6.91-12.104-2.764-17.72-2.764-17.72 2.084-4.006 2.979-9.355 2.979-9.355 1.059-4.634 4.753-5.588 4.753-5.588 2.306-.539 2.586-1.461 2.586-1.461 3.127-4.403 17.471-2.266 17.471-2.266l17.886-3.319c13.676 5.214 10.371 12.584 10.371 12.584 1.678 3.906.071 7.292.071 7.292-.383 1.724-1.331 3.498-2.292 5.138-4.28 7.299-12.621 13.171-12.621 13.171-2.368 2.184-3.017 3.583-3.017 3.583-.921.452-1.843.712-2.344 1.104-1.518 1.18-1.877 1.543-1.877 1.543z" fill="#221e1f"/><g stroke="#221e1f" fill="none"><path d="M22.622 52.361l.011.013.063.082M22.695 52.456l-.063-.082M22.695 52.456l.01.013"/><path d="M22.705 52.468c.158.178.552.544 1.281.749 1.192.335 3.043-.073 5.33-.221.982-.063 3.93-.596 4.824-.667 4.061-.318 4.823-.763 10.607-5.536 0 0-1 1.464-1.89 4.138 0 0-1.271 1.508-1.35 2.144 0 0-2.16-.088-3.113 1.35l-2.416-.586s-1.441 1.575-.223 2.271l.674.194.844.529s-2.167-.384-2.938.339c0 0-1.024.859 1.108 1.71.619.248.866 2.747.866 2.747s.686.896 1.638.602c.527-.163.919-.652 1.589-1.637 0 0 .359-.363 1.877-1.543.501-.392 1.423-.652 2.344-1.104 0 0 .649-1.399 3.017-3.583 0 0 8.341-5.872 12.621-13.171.961-1.641 1.909-3.414 2.292-5.138 0 0 1.607-3.386-.071-7.292 0 0 3.305-7.37-10.371-12.584l-17.886 3.319s-14.344-2.137-17.471 2.266c0 0-.281.922-2.586 1.461 0 0-3.694.954-4.753 5.588 0 0-.895 5.349-2.979 9.355 0 0-4.146 5.617 2.764 17.72 0 0 .129 5.244 2.676 11.757.042.11.175 1.159.213 1.274.851 2.763 1.512 4.747 3.04 7.646 0 0-1.717 4.95 7.037 4.834 0 0 13.272 3.023 24.139-.972 0 0 8.988-2.845 10.807-8.125 0 0 .112-.986 1.799-3.312 1.683-2.326 1.638-2.468 1.638-2.468s3.156-6.806-.1-7.708c0 0-3.876-6.482-5.047-3.065 0 0-3.085-3.183-3.865 2.907 0 0-3.03 3.367-2.525 6.534l-.996 3.872s-1.565.82-4.671.345c0 0-10.88-1.741-15.228-.311 0 0 0-.668-.95-1.843 0 0 3.555-5.764-3.598-14.787z"/></g><path d="M49.724 17.435c-.085.309.536 1.511.47 1.682-.065.173-.194.839-.194.839v2.689l-1.526 3.357s-.038 3.483-.059 4.129c-.021.644-4.8 9.694-5.435 10.685-.638.991-2.972 3.186-2.972 3.186h-5.73c-2.192-.991-7.283-13.168-7.283-13.523 0-.355-.212-4.816-.212-4.816s-.355-.355-.99-.568c-.638-.213-1.061-1.345-1.061-1.345s-.354-3.044-.354-4.106c0-1.062-.213-2.266-.213-2.266-.276-1.587 1.127-1.091 1.2-1.065-.023-.055 26.172-5.383 24.359 1.123zM51.166 9.975zM51.166 9.975z" fill="#221e1f"/><path d="M19.122 47.651c.603 1.037 3.685 7.699 1.693 7.699 1.096 0 1.404-2.342 1.284-3.134 3.481 4.267 5.532 9.371 4.073 14.951l-.378-.452-.302.187c.898.935 1.117 2.128 1.243 3.435l.265-.114v-.79c6.382-2.315 13.499 1.597 19.91-.303l1.346-3.875s-.591-3.707 2.767-6.468c.442-.364-.186-.57-.145-1.314.063-1.101.986-3.228 2.829-2.323.299.148.702.827.944 1.234.959 1.612-2.276 2.862-1.744 5.46.422-1.951 1.691-3.207 3.658-2.983-2.41-1.124-1.899-5.461.527-2.832 2.419 2.622 3.065 4.85.076 7.552 1.606-.917 2.589-2.592 2.452-4.455 4.461 1.487-2.563 9.537-3.726 12.044-2.411 5.195-8.104 7.65-13.395 9.03-4.919 1.283-8.934 2.229-14.109 1.83-3.809-.294-13.45-.904-8.238-6.867l-1.831 2.199-2.891-1.128c-3.271-2.472-1.262-5.646-1.792-8.525-.526-2.851-1.815-4.302-1.911-7.527l1.321.453c-3.591-4.978-4.982-9.94-7.277-15.64-1.417-3.522 3.059-7.312 3.643-10.414.485-2.574 1.601-2.215 3.579-3.842l1.831-4.873c1.356-1.366 2.58-1.086 4.209-.555 2.366.771 2.539-1.413 4.227-1.583 2.368-.238 4.144 2.148 3.407 4.226-1.068 3.011-3.277 4.975-4.827 7.714-1.087 1.922.857 5.414 2.785 6.332h-1.433c.948 2.171 1.226 7.991-1.019 9.512l-.187-.276-.039.452c-.392-1.735-1.361-3.058-2.825-4.037zM33.607 34.125s-.095.885.812 1.329c.906.445 7.276 2.597 7.276-.747v-.252M33.128 40.488l.796-.897s4.569.382 6.037.842l1.467.46s-3.408 3.548-8.301 0" fill="#fff"/><path d="M16.737 45.089c-.049.485-.459.235-.786-.153-.327-.386-.681-1.216-.681-1.216l-.545-.255c-.224-.105-.931-.514-1.278-.775-.346-.261-.425-.884-.494-1.363-.068-.481-.355-1.164-.709-1.367-.354-.206-.99.201-1.409.844-.417.646-1.16 1.86-1.16 1.86s-.873 1.37-1.339 1.738c-.465.369-.56-.01-.543-.295.014-.283.53-1.098.53-1.098l.469-.874s1.406-2.429 2.375-3.128c.97-.698 1.252-.508 1.817-.128.563.383.652 1.32.665 1.797.01.474.466 1.175.544 1.211.081.038.926.57 1.581 1.383.655.814 1.015 1.333.965 1.818z" fill="#221e1f"/><path d="M17.032 45.138c-.008.04-.032.385-.348.491-.305.065-.429-.06-.544-.121-.22-.155-.369-.325-.508-.514-.268-.39-.44-.763-.616-1.166l.136.141c-.253-.126-.502-.23-.769-.38-.251-.142-.493-.289-.734-.447l-.372-.262-.183-.197-.129-.224c-.133-.303-.179-.598-.221-.882-.034-.296-.077-.513-.175-.766-.091-.237-.222-.477-.379-.612l-.114-.065-.101-.001c-.093.011-.203.06-.306.121-.207.128-.398.312-.555.517-.625.888-1.173 1.898-1.849 2.805-.169.228-.341.454-.536.671-.099.108-.198.216-.332.312-.114.066-.289.236-.564.104-.216-.179-.188-.368-.197-.522l.015-.124.038-.128.088-.208c.127-.263.272-.505.425-.748l-.005.009c.555-1.07 1.229-2.106 1.978-3.059.373-.471.818-.942 1.369-1.225.262-.146.608-.275.932-.154.156.053.289.139.416.223.126.082.257.175.361.305.398.514.432 1.174.461 1.761.046.282.176.563.326.818l.122.185.068.066.099.062.37.267c.48.372.91.809 1.269 1.297.184.24.366.483.52.744.151.258.282.552.251.858l.295.049zm-.295-.049c.026-.306-.111-.594-.266-.849-.158-.257-.344-.495-.532-.731-.368-.479-.801-.903-1.284-1.262l-.37-.256-.094-.056-.096-.086-.132-.19c-.159-.262-.297-.537-.356-.851-.038-.598-.096-1.228-.464-1.683-.182-.2-.466-.369-.718-.467-.263-.094-.544.012-.796.157-.527.286-.92.723-1.288 1.202-.725.962-1.357 1.974-1.895 3.061l-.001.002-.004.007c-.142.234-.28.478-.392.723l-.073.181-.022.073-.009.085c-.008.114.039.249.057.246-.009.009.103-.013.203-.099.093-.069.185-.169.273-.27.176-.204.341-.428.501-.654.649-.907 1.153-1.891 1.801-2.852.18-.242.393-.461.66-.634.136-.084.284-.16.469-.189.099-.01.18-.023.316.018.09.025.185.082.25.138.271.233.407.509.527.787.117.267.186.605.219.866.044.269.097.533.196.744l.083.138.106.107.321.213c.231.145.472.285.711.414.224.122.495.231.746.35l.092.044.044.098c.163.359.357.743.57 1.037.108.147.247.287.372.37l.038.047-.073.054.002-.003.012-.078.295.05z" fill="#fff"/><path d="M22.863 72.476c1.627-.51 1.876.355 1.876.355-1.634 2.34-8.243 3.021-8.688-.682-.497-4.132 1.728-1.369.217-5.478-1.027-2.794 1.823-4.091 3.578-3.498-3.984 1.184-1.111 3.638-1.108 5.591.004 3.263-2.624 5.815 4.124 3.713z" fill="#221e1f"/><path d="M22.863 72.476c.332-.104.678-.185 1.029-.166.341.016.726.16.873.512l.005.011-.009.012c-.549.792-1.423 1.284-2.304 1.642-.896.344-1.851.574-2.842.601-.98.019-2.047-.098-3-.748-.467-.325-.875-.805-1.108-1.363-.119-.269-.199-.585-.246-.838-.05-.24-.093-.501-.12-.758-.043-.524-.11-1.072.133-1.799.11-.357.442-.756.53-.869l-.019.011-.029.005c-.025-.184-.162-.637-.31-1.026l-.245-.618-.137-.396c-.05-.169-.093-.337-.119-.491-.127-.628-.089-1.374.198-2.045.278-.676.78-1.228 1.339-1.585.56-.363 1.17-.581 1.797-.661.626-.078 1.279-.048 1.929.193l3.551 1.316-3.59.835c-.612.142-1.184.4-1.342.594-.085.085-.147.176-.157.412-.008.228.054.536.147.862.176.665.491 1.396.549 2.324l-.007.356-.033.298c-.027.2-.061.397-.101.59-.08.386-.184.757-.293 1.117-.108.36-.226.711-.305 1.052-.079.333-.132.685-.029.882.085.201.439.309.784.323.351.016.717-.019 1.079-.066.724-.11 1.446-.277 2.156-.477l.533-.151.133-.038.033-.01.008-.003.011.023-.004.001-.017.005-.066.02-.265.08-.53.161-.054.008.066-.02.133-.04.265-.08zm0 0l-.264.085-.132.042-.066.021.049-.025.528-.17.264-.085.066-.021.017-.005.004-.001.004.026-.008.003-.033.01-.131.045-.525.178c-.704.228-1.405.465-2.131.642-.363.091-.73.172-1.118.199-.194.012-.396.016-.608-.025-.209-.041-.453-.147-.612-.362-.304-.448-.237-.898-.223-1.279.035-.39.085-.761.125-1.125.041-.363.072-.72.079-1.069l-.007-.515-.019-.256-.036-.198c-.13-.55-.512-1.157-.845-1.875-.165-.364-.335-.766-.417-1.276-.089-.497-.019-1.178.315-1.709.328-.529 1.244-.858 1.648-1.101.412-.243.818-.401 1.216-.539v2.151c-.496-.137-1.238.002-1.688.317-.456.334-1.126.666-1.07 1.263l.033.199.078.277c.077.234.149.473.218.718.129.508.285.967.278 1.73-.008.196-.038.439-.142.7-.101.262-.283.49-.397.602l-.284.277c-.112.153-.186.577-.2.988l-.007.652c.002.215.011.364.048.541.069.337.236.647.497.919.53.543 1.397.874 2.281.982.89.106 1.831.061 2.723-.185.881-.245 1.777-.657 2.348-1.407l-.004.023c-.052-.154-.178-.29-.326-.373-.151-.084-.323-.125-.496-.136-.347-.025-.695.049-1.028.147z" fill="#fff"/><path d="M51.784 62.104s-.042 3.614-.042 4.216c0 .603-.431.71-.946 1.075-.517.365-2.278 1.033-2.278 1.033l.086-.323s.945-.536 1.181-.731c.237-.194.709-.602.99-1.527.279-.925.664-3.765.664-3.765l.344.022z" fill="#221e1f"/><path d="M24.123 40.895l.549.605h-1.478s.546.931.546 2c0 1.07-.011 4.805-.011 4.805h-.229v-2.513s-.105-2.034-.811-3.433c-.709-1.399-2.504-2.176-2.504-2.176s.494-.037 1.184-.071c.691-.034 1.326.318 1.326.318s.882-.137 1.428.465z" stroke="#fff" fill="#221e1f"/><g fill="#fff"><path d="M51.372 20.467c.383.303 1.205 1.343 1.588 1.974.383.632-.163 1.617-.464 1.945-.302.332-.631.477-1.368.861-.741.384-1.865 1.753-1.865 1.753h-.263v-.536l1.533-3.831s-.367-1.812-.367-2.387c0-.576.22-1.204.22-1.204l.026.355c.029.192.575.768.959 1.07zM22.705 51.267c1.424 3.161 6.175 1.384 9.369.76-2.08-.077-3.076.333-5.262.627 0 0-3.27.469-4.107-1.387zM31.465 50.896c-.139-.055.881-1.52 1.895-2.179 1.011-.657 2.24-.286 2.76-.286.52 0 2.602-.247 2.602-.247l.108-.302s-.575 0-1.45-.165c-.877-.163-1.205-.082-1.588-.657-.383-.576-.412-2.742-.412-2.742l-.006-.318h4.606l.714-.631c1.504-1.288 2.437-2.533 2.791-3.164.358-.628 1.014-2.602 1.014-2.602l.63-1.399s.247.026.548-.276c.302-.3.162-.768.162-.768 1.56-2.439 2.161-4.413 2.161-4.413v-4.235s2.605-.643 3.264-.643c.656 0 2.079-.276 2.819-.959.74-.686.494-1.454.191-2.579-.302-1.125-2.108-2.959-2.108-2.959s1.286.137 2.326.602c1.042.465 1.371 2.413 1.426 3.099.056.683.575.985 1.121 1.095.549.111 1.014.96 1.014.96s0-.439-.053-.576c-.055-.137-.11-1.343-.11-1.343s.055-.247 1.122.192c1.068.439.851 1.014.906 1.59.053.557.567 1.785.598 1.861l-1.148-.573s-.163 2.165-.163 2.77c0 .602-.275 2.137-2.328 3.974-2.053 1.837-3.917 1.425-4.382 1.509-.465.082-.439 1.041-.605 2.274-.162 1.235-.711 2.933-1.504 4.113-.796 1.178-3.726 3.812-4.164 4.195-.439.384-2.463 1.919-3.038 2.192-.574.273-1.079 1.176-1.997 1.87-.784.592-2.032 1.496-2.55 1.683-.858.308-1.416.492-2.066.628-3.212.669-3.212.2-3.212.2.139-.082 3.876.179 5.903-1.792.347-.338.664-1.574.498-1.574-.165 0-.604.495-.932.878-.328.383-1.04.491-1.644.739-.601.247-1.23.384-1.971.192-.738-.192-.959-.904-.959-.904s-.738.989-1.203 1.288c-.468.303-1.451.439-1.588.384zM24.425 49.527c-.666.413-.997.628-1.037.655.008-.056.133-.723.133-1.067 0-.355-.11-.794-.11-.794s.11-.111.166-.494c.052-.384.136-1.232.136-1.591 0-.357.056-1.358.056-2.454s-.604-1.782-.604-1.782h1.563l-.906-.849c-.49-.466-1.205-.781-1.205-.781l.192-.605c.181-.573-.152-.823-.186-.846.113.037 3.14 1.067 4.269 1.067 1.15 0 1.644-.575 1.644-.575-.962 0-2.904-.712-3.837-1.096-.929-.384-.682-.741-.682-1.015 0-.273-.331-.521-.331-.521s.14 0 .66-.494c.519-.494 1.176-1.974 1.451-2.742.273-.768.113-1.119.108-2.139-.031-5.691 1.194-7.693 1.124 1.099-.008.931.272 1.178.272 1.178s.166.247.465.465c.302.221 1.042 1.509 1.453 2.442.412.93.766 2.055.766 2.055s1.179 1.903 2.192 3.357c1.014 1.454 2.054 2 2.054 2h.77v.318s-.63 1.616-.985 2.358c-.357.741-.662 1.755-2.277 3.125-1.614 1.371-2.628 1.616-3.697 1.811-1.069.191-2.437-.029-3.015-.14-.574-.108-1.341-1.067-1.341-1.067s.331-.247 1.043-.716c.711-.465.903-.985.903-.985l-.358-.027s-.136.41-.848.849z"/></g><path d="M51.497 33.195l.238.598-1.061-.49s.147.838-.149 1.627c-.295.79-1.419 3.194-1.419 3.194l-.168-.063.705-1.851s.484-1.53.348-2.758c-.137-1.228-1.07-2.232-1.07-2.232s.375.109.895.275c.519.166.891.601.891.601s.554.504.79 1.1z" stroke="#fff" fill="#221e1f"/><path d="M60.333 23.198c.848 1.593 1.06 2.957 1.06 3.238 0 .284-.142 1.328-.142 1.328s.016-1.309-.336-1.787c-.355-.476-.407-.991-.407-1.167 0-.176.265-.867-.265-1.186-.531-.318-.796-.762-1.132-.849-.337-.089-.937-.336-1.274-.336-.335 0-.478.407-.478.673 0 .266-.052.46-.052.46s-.407-.302-.706-.778c-.302-.479-.441-.905-.441-1.204 0-.302-.089-.957-.407-1.435-.32-.476-.69-.76-1.026-.812-.336-.056-.564-.373-1.696-.497-1.132-.124-1.292-.16-1.487.142-.194.299-.227.494.444 1.043.67.55 1.025 1.223 1.29 1.593.265.371.706 1.276.725 1.541.018.265-.071.972-.213 1.08-.142.105-.423.531-.99.707-.389.121-.712.21-.875.255.142-.045.41-.147.77-.379.549-.355.937-.654.937-1.54 0 0 .034-.902-.515-1.611-.546-.707-.635-1.114-.953-1.22-.318-.108-.867-.92-1.027-1.17-.157-.247-.071-1.114-.071-1.271 0-.161.055-.232.055-.232l.37-.459v-.442s1.61.744 2.085.972c.478.231 3.166 1.698 3.696 2.106.531.407 2.209 1.645 3.059 3.238z" fill="#221e1f"/><path d="M61.622 30.385c1.292 1.462.056 4.726.056 4.726s-1.201-2.953-1.24-3.417c-.133 3.767-5.58 9.38-7.567 4.105 3.662-.047 6.523-2.756 8.273-5.804l-3.284 3.407s-2.735 2.388-5.077 2.026c4.013-.89 7.283-3.811 7.019-8.125l1.394.673-.299.602.725 1.806c.141.229-.18-.203 0 0zM37.528 58.416zM35.584 55.002c.158-.549.265-.938.654-.815.389.124.937.39 1.29.39s1.026-.158 1.045-.247c.015-.09.792-.09 1.147.104.355.195.778.639.778.639s-.176.954-.37 1.204c-.195.247-.425.741-.564.83-.142.09-1.345.177-1.345.177s-1.045-1.007-1.468-1.168c-.425-.16-.885-.246-.885-.246s-.441-.318-.281-.867zM60.807 35.87c.019.478.231 1.062.231 1.062l-3.13 5.205s-1.104 2.201-2.555 3.67c-1.449 1.469-5.223 4.84-5.223 4.84l-1.289 1.427c.074-.123 3.886-5.036 4.151-5.48.265-.442.071-.813.071-.813l-5.073 7.254s-2.812 2.442-2.846 2.532c-.035.089-1.151 1.503-1.326 1.753-.176.247-.16.352-.459.476-.299.126-2.085 1.01-2.085 1.01s-.975.762-1.274.919c-.302.16-.795.725-.919.867-.126.143-.459.569-.53.674-.071.108-.178.512-.531.62-.354.105-.919.071-1.15-.089-.228-.16-.318-.549-.318-.761 0-.213-.231-1.221-.443-1.7-.21-.478-.337-.797-.688-.831-.354-.037-.99-.531-.99-.763 0-.229.018-.512.584-.601.567-.087 1.822-.035 1.822-.035l1.573.689s1.554.019 1.733-.228c.176-.247.459-.426.459-.834 0-.404.015-1.608.015-1.608l.16.442.284-.105s-.284-.886-.832-1.133c-.546-.25-1.219-.39-1.219-.39s.725-.639 1.555-.567c.832.07 1.239.512 1.45.867.212.355.708 1.327.708 1.327s-.231-1.204.352-1.398c.583-.195.497.212 1.449-.337.956-.546.974-.883.974-1.398 0-.512-.018-1.272-.018-1.272l1.449-1.985-2.544 2.001s.352.496.352.886-.281.778-.617.901c-.336.125-1.486.318-1.733.318h-.25l-.21-.087 1.554-1.238s1.681-2.991 2.245-4.247c.439-.973.539-1.099.56-1.104 0 0-2.823 4.253-2.875 4.465-.052.213-1.326 1.855-1.326 1.855.034-.055.343-.946.567-1.254.228-.321.53-.601.795-1.453.265-.849.759-2.087 1.129-2.67.373-.584 1.08-1.451 1.928-2.053.848-.602 1.467-.849 2.405-1.611.937-.759 1.979-2.071 1.979-2.071s1.166.037 2.088-.778c.919-.815 1.872-2 1.872-2l3.854-1.238.176-.105-.194.936s.653-.318.885-.797c.227-.476.299-.618.317-1.078.018-.46.213-1.099.336-1.506.123-.405.291-2.176.291-2.176l.452 1.435s-.177.883-.161 1.361z" fill="#fff"/><g fill="#fff"><path d="M25.56 17.013c.032.639 1.767 3.569 1.767 3.569l.174 1.096v11.396s.9 1.296 1.551 2.118c.649.822 1.268 3.257 1.268 3.257s.858 1.486 1.462 2.754c.601 1.265 1.752 2.641 2.451 2.997.698.354 4.957.161 5.775-.174.817-.332 2.304-2.358 2.714-2.935.41-.577 1.287-2.633 1.437-3.138.255-.858.681-1.71 1.108-2.001.457-.313 1.323-2.09 1.491-2.335.167-.245 1.322-2.839 1.346-3.215.023-.378.043-1.548.043-2.637 0-.444.023-1.048.266-1.592.36-.795.802-1.493.802-1.493l.55-3.414s.039-3.34.177-4.495c1.795-15.063-25.269-17.779-24.381.243zm7.47 14.408c.424-.957 1.192-1.479 1.955-2.146.367-.321 1.392.769 1.637 1.083.584.75-.035 1.28-.672 1.726.649.468 1.07 1.149 1.698 1.634.85.656 1.315-.054 1.848-.675.273-.319.53-.639.919-.823.397-.188.608-.121.628-.606.027-.649-.351-1.094-.358-1.681-.005-.382.61-.382.844-.271.343.163.523.616.642.948.287.804.665 2.225.318 3.06-.191.46-.405-.533-.458-.674-.217-.586-.465-1.16-.713-1.733-.042.232-.033.846-.227.982-.517.362-1 .547-1.42 1.036-.403.471-.82 1.202-1.541 1.027-.822-.2-1.156-1.009-1.761-1.514-.693-.579-1.073-1.098-1.582-1.864-.056-.084-.923.672-.979.72-.515.433-.582 1.028-.97 1.57-.586.819-.353-.568.193-1.8zm-2.883-6.921h.866s0-.968.289-1.21 3.056.422 3.61.759c.554.336-3.345-1.602-3.345-1.602s-.675-.097-1.276-.097c-.602 0-1.444-.289-1.444-.289l3.009-.747s1.588.82 2.334 1.375c.583.431 1.318 1.432 1.35 1.396.131-.155.021-.652.002-.736.029.071 2.27 2.355 2.703 2.957.434.602-.059 4.142-.059 4.142l-1.011-2.29-2.565-1.23.891-1.036v-.797s-.438.104-.748.316c-.882.604-2.57.304-3.409-.23-.697-.444-1.197-.682-1.197-.682zm2.528 9.659c3.085.811 6.518 1.501 9.652.528.278.921.247 1.555.121 2.46-.691 4.969-11.718 7.06-9.773-2.988zm13.406-8.676s-.096.642-2.142.578c-.238-.008-.817-.192-2.334-.555 0 0 .577-1.009.924-1.282.396-.307.897-.663 1.241-.765.528-.155 2.965-.41 3.858-.499l.331-.032-.289 1.062s-3.033-.226-3.514.016l3.613.586-1.689.891z" stroke="#221e1f"/><path d="M34.912 24.447l-.834-.239.089.239c.121.336-.241.699-.241.699 1.013.168.987-.699.987-.699zM44.157 24.423c.291.381.165.639.148.67.619-.216.165-.694.165-.694l-.313.023zM43.542 24.615c-.153 0-.276.124-.276.276 0 .155.123.278.276.278.152 0 .278-.124.278-.278 0-.153-.126-.276-.278-.276zM42.76 23.892l-.698 1.108h.916c-.363-.073-.218-1.108-.218-1.108zM33.312 24.904c.153 0 .276-.118.276-.265 0-.147-.123-.266-.276-.266-.154 0-.278.119-.278.266 0 .147.124.265.278.265zM33.011 23.963l-.674-.144s-.239.362-.192.628c.047.265.409.387.409.387s-.168-.82.457-.87zM26.486 22.776c-.069-.55-.276-.62-.303-.836-.027-.214-.102-.594-.399-.679-.297-.085-.227-.676.125-.815.355-.143 1.03-.665 1.03-.665s-.428-1.355-.769-1.821c-.345-.468-.915-.932-1.152-.78-.238.152-.179.849-.067 1.296.114.446.238 1.21.267 1.667.026.458.193 1.094.241 1.474.048.384.033 1.185.546 1.632.513.447.833.746 1.105.857.269.112.608.094.608.094l-.041-.334s-1.121-.54-1.191-1.09z"/></g><path d="M30.032 19.078c.038-.379.294-.736.657-.974.369-.224.813-.321 1.214-.309.818.007 1.497.312 2.067.674.569.373 1.043.83 1.416 1.366.385.524.666 1.118.831 1.817l-.074.094c-.482-.386-.915-.801-1.377-1.191-.461-.389-.938-.759-1.444-1.079-.498-.326-1.031-.619-1.604-.744-.567-.132-1.188-.012-1.599.43l-.086-.084zM30.293 16.923c.585-.43 1.186-.649 1.809-.763.163-.033.312-.06.503-.064h.275l.077.006.096.014.172.032c.4.094.658.197.952.32.559.251 1.071.561 1.535.966.468.394.901.854 1.236 1.496l-.054.107c-1.071-.482-2.119-1.016-3.197-1.472-.266-.119-.536-.24-.802-.331-.258-.083-.557-.099-.845-.121-.583-.035-1.169-.053-1.755-.07l-.002-.12zM30.595 15.939c.705-.279 1.473-.332 2.217-.283.744.053 1.477.228 2.156.447.68.215 1.347.47 2.001.769.651.306 1.293.641 1.897 1.096-.755.023-1.473-.073-2.182-.198-.706-.132-1.399-.309-2.078-.526l-1.973-.667c-.655-.224-1.317-.417-2.038-.638zM40.224 19.135c.385.107.641.045.91-.048.262-.078.525-.2.801-.305.549-.238 1.14-.465 1.785-.645.649-.17 1.338-.324 2.162-.256.402.035.89.11 1.348.491.214.201.357.486.357.731.012.246-.067.448-.173.621h-.12c-.004-.323-.114-.656-.388-.792-.266-.144-.607-.138-.928-.104-.652.08-1.295.282-1.939.464-.649.172-1.302.35-1.979.437-.338.04-.685.058-1.03 0-.341-.058-.688-.232-.897-.514l.09-.079zM38.264 42.028c-1.347.096-2.888.362-4.523-.939-1.639-1.301-2.022-3.735-2.049-4.024 0 0 .771 2.337 1.518 3.18.745.844 2.528 1.783 4.309 1.614 1.78-.169 3.465-1.036 3.465-1.036s-1.371 1.109-2.72 1.204zM41.695 34.444c.189-.067.323-.15.473-.23l.409-.259.195-.13.166.235c.219.309.362.681.378 1.076.019.388-.108.816-.418 1.055.011-.384-.035-.681-.114-.981-.081-.297-.191-.587-.314-.884l.361.105c-.181.077-.372.12-.567.13-.188.011-.407-.016-.568-.117zM48.823 25.44s.29-.409.882-.724c.595-.315.824-1.503.824-1.503s.574-2.902.397-3.949c-.175-1.047.261-2.376.261-2.376" fill="#221e1f"/><path d="M49.598 22.886c.04-.517.203-.593.219-.796.016-.201.463-1.297.178-1.408-.286-.113-.837-.563-.837-.563s.305-1.287.564-1.74c.261-.455.705-.919.896-.79.195.128.165.782.089 1.204-.08.423-.158 1.141-.169 1.569-.008.428-.124 1.03-.152 1.387-.029.36.005 1.107-.392 1.552-.397.445-.644.741-.858.86-.211.119-.482.12-.482.12l.025-.314s.878-.565.919-1.081z" fill="#fff"/><path d="M25.104 15.563c.292.716.614 1.453.792 2.205 1.07-.194 1.337-1.863 1.821-2.709.737-1.291-.018-1.946 1.389-3.015.66-.501 1.091-1.118 1.856-1.424 1.524-.609 2.167.608 3.387 1.632.959.804 2.319 1.65 2.112 3.109l2.111-1.106c-.065-.103-.47-1.107-.199-1.107.776 0 3.775 1.568 3.89 1.968.026.056 2.221-1.39 2.539-1.762-.321.215-2.431 1.19-1.55-.046.732-1.027 1.322-.795 1.855-2.072 1.151.043 2.323 1.074 2.864 2.013.864 1.494 1.031 3.769 1.43 4.734 1.217 2.943 1.571-7.651.985-9.971-.248-.976-3.152-2.206-4.001-2.757-1.244-.806-3.271-.741-4.714-.983-1.44-.242-2.886-.45-4.328-.673-1.173-.181-2.821-.797-3.982-.423l-5.456 1.758c-1.265.408-3.914 5.257-3.774 6.76.099 1.063.272 2.979.973 3.869z" fill="#221e1f"/></g></svg>